<svg version="1.1" xmlns="http://www.w3.org/2000/svg" xmlns:xlink="http://www.w3.org/1999/xlink" width="184.56972" height="128.24583" viewBox="0,0,184.56972,128.24583"><g transform="translate(-147.85235,-115.30814)"><g data-paper-data="{&quot;isPaintingLayer&quot;:true}" stroke-linecap="butt" stroke-linejoin="miter" stroke-miterlimit="10" stroke-dasharray="" stroke-dashoffset="0" style="mix-blend-mode: normal"><g stroke="none" stroke-width="1"><path d="M321.28459,161.32254l4.83273,5.54029l3.88446,7.28692l1.36994,7.96938l-1.23751,8.36807l-6.21945,8.04965l-8.09616,7.34776l-6.39622,3.73284l-10.79983,4.18125l-17.04271,2.51226l-33.30298,2.1497l-2.95464,-4.88638l-3.72761,-9.31026l-0.86063,-11.78939l-0.36942,-18.47709l2.33067,-11.71921l4.70641,-11.01107l3.90638,-3.94904l19.25014,0.55003l16.84284,0.98145l13.645,2.8909l14.85564,5.82667l5.38294,3.75528" fill="#c1b4d8" fill-rule="evenodd"/><path d="M249.19674,147.85813l-2.81857,4.32126l-2.24081,5.03805l-1.20794,3.86708l-1.26321,5.76627l-0.82504,4.75137l-0.52285,4.0137l-0.51308,3.98697l0.12179,9.70744l-0.08968,3.13872l0.82066,6.18596l0.5302,5.91756l2.04293,5.35353l3.15436,4.89909l1.89137,3.65551l-8.09584,0.36892l-4.66995,-0.73368l-5.07969,-7.4011l-2.89046,-10.63389l-0.51492,-9.91875l0.91121,-7.45201l-0.20391,-6.83361l2.52256,-11.43262l2.75389,-9.02503l1.77814,-6.35181l14.40884,-1.18895" fill="#897ab8" fill-rule="evenodd"/><path d="M220.35561,178.12174l-0.0407,1.42442l-0.25063,8.77142l-0.5692,1.6094l-3.56555,4.27491l-7.00957,4.22652l-8.80412,0.64881l-9.34233,-2.29276l-10.93225,-2.56328l-13.09493,-5.47624l-13.96715,-6.42654l-1.99418,-0.93234l0.54449,-0.70974l2.5601,-0.5271l7.58091,-3.28482l8.70031,-3.1778l13.37226,-4.19478l13.69584,-2.45983l9.78501,0.8048l6.97001,2.37504l3.86813,3.41187l2.49355,4.49805" fill="#f7ec1e" fill-rule="evenodd"/><path d="M208.69493,180.1145l0.56562,1.14162l-0.74556,5.15581l-1.84554,1.67297l-4.16616,0.85636l-10.62223,-2.10424l-12.37937,-4.33034l0.02928,-1.02458l9.96351,-2.81658l9.5611,-1.82767l5.60971,0.16029l3.03633,1.18721l0.99331,1.92916" fill="#fbf5a8" fill-rule="evenodd"/><path d="M267.13507,187.3866l-0.8358,1.27665l-2.53297,1.3282l-5.22116,1.05131l-9.0773,-0.25936l-14.62489,-1.71841l-16.71046,-2.07812l-16.7543,-4.08019l10.53842,-1.99983l10.21098,-1.00877l14.28032,-0.19221l16.1784,-0.23802l9.75787,0.87906l3.44302,1.79907l1.41642,2.84161l-0.06855,2.39902" fill="#ef463c" fill-rule="evenodd"/><path d="M268.28607,147.10404l-9.59037,0.22618l-8.70316,0.65169l-14.70486,1.08045l-1.31646,-2.83876l-3.10316,-3.18993l-7.44953,-1.3133l-9.78644,0.12054l-8.12726,1.46847l-1.68488,-0.44831l3.45845,-2.80237l12.79993,-7.23737l16.26794,-6.83816l10.94399,-2.18932l8.59464,-0.35467c0,0 10.60692,2.60501 10.90009,2.81347c0.29319,0.20746 5.16877,4.24836 5.16877,4.24836l2.56152,6.07564l-0.19996,6.99814l-1.74384,3.75072z" fill="#ef463c" fill-rule="evenodd"/><path d="M269.27287,217.35988l2.23431,5.65812l0.34905,6.62067l-3.12888,6.81341l-6.12451,4.727l-11.33423,1.87705l-11.90528,-2.54107l-15.11511,-5.53396l-9.33047,-5.36868l5.58572,0.1596l5.83319,-1.53402l4.86516,-2.56209l3.00158,-3.72379l1.27625,-2.75667l8.49853,-0.45746l10.99437,-0.48619l14.30031,-0.89193" fill="#ef463c" fill-rule="evenodd"/><path d="M324.10211,192.01554c-0.09139,-0.30273 -1.52965,-5.84607 -1.52965,-5.84607l-0.37598,-7.81393l1.71971,-7.77305l2.09361,-3.4226l3.25595,4.84497l1.85095,8.60638l-1.16611,9.37052l-3.45731,5.70358c0,0 -2.29977,-3.36706 -2.39116,-3.66979z" fill="#ef463c" fill-rule="evenodd"/><path d="M246.14113,242.96466c-2.34787,-0.42323 -4.59661,-1.23479 -6.92509,-1.67147c-2.06975,-0.38827 -3.97943,-1.26717 -6.02819,-1.68986c-0.71211,-0.1464 -1.38306,-0.50771 -2.05882,-0.80613c-2.08855,-0.92103 -4.18138,-1.83217 -6.24856,-2.80061c-1.3663,-0.63928 -2.66428,-1.42868 -4.03921,-2.0462c-1.84407,-0.82901 -3.73624,-1.55034 -5.60065,-2.33291c-0.38356,-0.16102 -0.77346,-0.34523 -1.10246,-0.59473c-0.86753,-0.65905 -1.85493,-0.97438 -2.8969,-1.23524c-0.99531,-0.24853 -1.95711,-0.58414 -3.00035,-0.66096c-0.43525,-0.03244 -0.88501,-0.36242 -1.25489,-0.65211c-0.67038,-0.52136 -0.16567,-1.20422 -0.11358,-1.80198c0.03699,-0.41911 0.65699,-0.83057 1.08147,-0.77143c0.39958,0.05544 0.82866,0.16373 1.16272,0.37636c1.39217,0.88912 2.85126,1.67712 4.44196,2.06071c1.35616,0.32887 2.74077,0.57251 4.17772,0.62958c1.67674,0.06792 3.22914,-0.20385 4.8374,-0.57507c2.60325,-0.60189 5.04749,-1.55547 7.23794,-3.04552c1.76402,-1.20111 3.24605,-2.7214 3.85232,-4.89297c0.15485,-0.5528 0.39701,-1.0801 0.64077,-1.73341c-0.41212,-0.562 -0.79096,-1.30812 -1.37458,-1.82c-0.83831,-0.73624 -1.26151,-1.71573 -1.75457,-2.63119c-0.8067,-1.49265 -1.48416,-3.06164 -2.11536,-4.63931c-0.36805,-0.91388 -0.53775,-1.90714 -0.79856,-2.86298c-0.22011,-0.80461 -0.47041,-1.60309 -0.66233,-2.4139c-0.40595,-1.7233 -0.78065,-3.45471 -1.17651,-5.18072c-0.04095,-0.17724 -0.08882,-0.3927 -0.21163,-0.50625c-0.46881,-0.43357 -0.40503,-0.87993 -0.16016,-1.39714c0.10322,-0.21614 0.1398,-0.51622 0.08442,-0.74889c-0.46478,-1.94007 -0.46946,-3.912 -0.45806,-5.88648c0.0016,-0.37111 0.00023,-0.7433 -0.01319,-1.11383c-0.01911,-0.55677 -0.58456,-1.07413 -1.23838,-1.12483c-0.54501,-0.04258 -1.09138,-0.0722 -1.63793,-0.09582c-0.54255,-0.02351 -1.0875,-0.03307 -1.67626,-0.0499c-0.03753,0.15799 -0.11684,0.30779 -0.09776,0.44539c0.08494,0.63368 -0.04735,1.0971 -0.54715,1.60803c-0.90278,0.92459 -1.59527,2.05227 -2.45246,3.02719c-0.99057,1.12617 -1.92793,2.31588 -3.29172,3.05923c-1.01319,0.55229 -1.94107,1.27008 -2.97476,1.76976c-0.88661,0.42885 -1.86061,0.69514 -2.81645,0.95595c-0.92457,0.2517 -1.86835,0.47583 -2.81679,0.58279c-1.11,0.12435 -2.23437,0.12123 -3.35263,0.14931c-0.96509,0.02445 -1.93584,0.07174 -2.89736,0.00625c-0.82669,-0.05763 -1.64556,-0.2491 -2.46351,-0.40253c-1.20102,-0.2264 -2.40422,-0.44685 -3.59607,-0.714c-1.06465,-0.2375 -2.11234,-0.54355 -3.1723,-0.80493c-0.93379,-0.23076 -1.88212,-0.40792 -2.80697,-0.67144c-1.5153,-0.43145 -2.99338,-1.00991 -4.52515,-1.3548c-3.2156,-0.72514 -6.21415,-2.04432 -9.237,-3.28316c-3.11875,-1.2786 -6.19235,-2.66695 -9.27469,-4.02954c-2.3483,-1.03849 -4.66338,-2.15407 -7.02464,-3.15892c-1.80281,-0.7678 -3.65713,-1.41303 -5.4857,-2.11954c-1.01321,-0.3921 -2.01889,-0.80299 -3.03002,-1.19803c-0.17807,-0.07011 -0.36739,-0.13155 -0.55492,-0.15091c-0.44685,-0.04678 -0.84031,-0.14106 -0.84123,-0.70431c-0.00208,-0.62732 0.41492,-1.18163 0.96946,-1.26283c0.68521,-0.10247 1.3729,-0.22188 2.0641,-0.25415c0.88755,-0.04167 1.67457,-0.3113 2.44894,-0.73335c0.40952,-0.22239 0.91803,-0.33792 1.38781,-0.35851c0.80227,-0.0331 1.51752,-0.27677 2.18537,-0.68186c1.38755,-0.83971 2.94026,-1.22752 4.46355,-1.70621c0.82372,-0.25858 1.6108,-0.63525 2.43635,-0.88778c2.15269,-0.65879 4.12269,-1.75096 6.20507,-2.57483c0.92485,-0.36673 1.85804,-0.71022 2.78566,-1.06887c1.04492,-0.40232 2.0705,-0.86322 3.13455,-1.19996c1.1509,-0.36528 2.37486,-0.52138 3.5004,-0.94441c1.18115,-0.44345 2.4235,-0.543 3.61855,-0.87801c0.64848,-0.18255 1.3232,-0.26832 1.97631,-0.43773c0.68129,-0.17561 1.33943,-0.45093 2.02669,-0.59036c1.2558,-0.25524 2.52637,-0.43202 3.7874,-0.6601c0.40726,-0.0734 0.81355,-0.18284 1.20371,-0.32275c1.05226,-0.3791 2.14741,-0.3338 3.23465,-0.36176c0.99314,-0.02565 1.97331,0.0874 2.98041,-0.11192c0.68615,-0.13546 1.44652,0.14237 2.17728,0.19627c0.43228,0.03136 0.87013,-0.02716 1.30504,-0.01773c0.50988,0.01157 1.01998,0.05015 1.53032,0.08074c1.02261,0.06323 2.04845,0.11855 3.07055,0.19978c0.27746,0.02293 0.55286,0.11784 0.82358,0.2016c1.16115,0.36131 2.32554,0.71471 3.47895,1.10181c1.38629,0.46478 2.7637,0.96033 4.14339,1.44593c0.12184,0.0425 0.25481,0.08031 0.34957,0.16005c0.95955,0.79973 1.95209,1.56539 2.85078,2.42941c0.73024,0.70214 1.393,1.49039 1.9949,2.30792c0.34857,0.47515 0.53547,1.07673 0.76066,1.63339c0.28785,0.70951 0.54343,1.4281 0.79065,2.08943c-0.00685,0.30993 -0.00968,0.61898 0.02153,0.92699c0.02013,0.20566 0.12972,0.32684 0.33595,0.35674c0.33575,0.04861 0.65288,0.01365 0.96592,-0.08845c-0.00614,0.03984 -0.00908,0.07277 -0.01631,0.11558c1.33248,-0.03296 2.65897,-0.06608 4.04452,-0.10052c-0.52127,-1.64356 -0.31104,-3.15417 0.01537,-4.66947c0.17419,-0.80936 0.26986,-1.63696 0.45796,-2.44292c0.21871,-0.93213 0.53081,-1.84159 0.74056,-2.77498c0.12375,-0.54969 0.52776,-1.17441 -0.21994,-1.65096c0.24025,-0.49534 0.18521,-1.05514 0.79899,-1.42376c0.35831,-0.21585 0.49329,-0.87827 0.63629,-1.36638c0.26147,-0.88789 0.42469,-1.80361 0.68121,-2.69364c0.18318,-0.63403 0.47249,-1.23601 0.6805,-1.86332c0.22991,-0.69372 0.44499,-1.39386 0.62729,-2.10194c0.61193,-2.36949 1.56828,-4.60909 2.54737,-6.83903c0.28571,-0.65111 0.48089,-1.21476 -0.1232,-1.85027c-0.26806,-0.28177 -0.32752,-0.82669 -0.35614,-1.26069c-0.10884,-1.58275 -1.05505,-2.67422 -2.16588,-3.60633c-0.76497,-0.64211 -1.7805,-0.8482 -2.75993,-1.05726c-1.03212,-0.22057 -2.04879,-0.52673 -3.08825,-0.70049c-0.94684,-0.15911 -1.91542,-0.18778 -2.87423,-0.27821c-0.73433,-0.069 -1.46906,-0.19404 -2.2051,-0.20306c-0.76706,-0.00891 -1.53703,0.08413 -2.3042,0.14925c-0.38307,0.03207 -0.77357,0.18398 -1.14351,0.1414c-2.11885,-0.24562 -4.11869,0.59561 -6.20687,0.64199c-0.88595,0.0207 -1.78947,0.20097 -2.64586,0.44761c-1.64316,0.47226 -3.32407,-0.04496 -4.96589,0.27528c-0.17401,0.03304 -0.36965,-0.05258 -0.58576,-0.08677c-0.06157,-0.36591 -0.11898,-0.70268 -0.19935,-1.18118c0.40826,-0.31847 0.87487,-0.68329 1.34348,-1.04806c0.1013,-0.07914 0.21526,-0.14591 0.30488,-0.23639c1.52832,-1.52997 3.25456,-2.77418 5.17018,-3.78388c1.1894,-0.62729 2.27242,-1.45269 3.45057,-2.10631c1.08764,-0.60218 2.12131,-1.31095 3.3393,-1.67831c0.57419,-0.17367 1.07685,-0.57448 1.62297,-0.85099c0.50756,-0.25761 1.03024,-0.48377 1.5444,-0.72719c0.22916,-0.1075 0.45176,-0.23019 0.68281,-0.33363c1.13494,-0.50679 2.28027,-0.99228 3.40484,-1.52137c0.71996,-0.33858 1.40497,-0.74918 2.11648,-1.107c0.28217,-0.142 0.62049,-0.18335 0.88435,-0.34988c1.60663,-1.01453 3.44762,-1.47813 5.16769,-2.22631c0.35049,-0.15205 0.71628,-0.27966 1.03809,-0.47855c1.10992,-0.68158 2.35093,-0.94424 3.59705,-1.21076c0.45798,-0.09796 0.88547,-0.35385 1.34482,-0.42977c0.99508,-0.16365 2.00467,-0.23984 3.0034,-0.39138c0.46421,-0.07077 0.91317,-0.23802 1.37067,-0.354c0.5855,-0.14934 1.17001,-0.40375 1.75857,-0.41494c1.42733,-0.02624 2.73443,-0.64116 4.13329,-0.75626c1.01981,-0.08391 2.04242,-0.12572 3.06281,-0.1946c0.91417,-0.06292 1.82865,-0.13683 2.74305,-0.20774c0.22357,-0.01662 0.47752,-0.11641 0.66653,-0.04398c1.45569,0.5568 3.05004,0.14717 4.51267,0.67116c0.3456,0.12392 0.76312,0.04181 1.14653,0.06777c0.50422,0.03442 1.03235,0.00249 1.50758,0.14112c0.82549,0.23967 1.59929,0.74798 2.43246,0.85882c1.58458,0.21234 3.00149,0.65599 4.14956,1.82526c0.20706,0.211 0.56737,0.27532 0.85991,0.40072c1.76825,0.75181 2.81556,2.29635 4.00553,3.6799c0.18204,0.21129 0.2758,0.50108 0.40658,0.75592c0.38016,0.73516 0.77045,1.4656 1.13133,2.21021c0.21637,0.44536 0.39718,0.90972 0.57099,1.37387c0.26769,0.71494 0.53232,1.43179 0.76566,2.15875c0.07537,0.23325 0.08168,0.50254 0.06257,0.75109c-0.11687,1.5693 -0.20187,3.14352 -0.3975,4.70357c-0.0985,0.78651 -0.36968,1.55908 -0.62838,2.315c-0.28588,0.83217 -0.64608,1.63922 -1.01887,2.57195c1.00559,0.02873 1.95272,0.03779 2.89862,0.08982c0.54035,0.03045 1.07422,0.14774 1.61414,0.19318c1.85122,0.15894 3.71023,0.25507 5.55593,0.46687c1.84967,0.21292 3.67756,0.66331 5.53006,0.77726c2.1311,0.13192 4.14745,0.77877 6.2252,1.13226c1.91645,0.32687 3.78023,0.95636 5.669,1.4465c0.8699,0.22594 1.7384,0.46584 2.61767,0.64403c1.47103,0.30014 2.90581,0.67827 4.20145,1.4796c0.19663,0.12067 0.48594,0.07891 0.70845,0.1693c1.1878,0.47912 2.38197,0.94542 3.54626,1.47689c1.16135,0.52939 2.29166,1.12991 3.51376,1.73907c0.56546,-0.39301 1.12885,-0.11881 1.75534,0.22323c1.65778,0.90672 3.05486,2.14913 4.2911,3.524c1.00547,1.11817 2.1008,2.13787 3.12909,3.22769c0.63894,0.67652 1.21313,1.41323 1.81708,2.12376c0.06197,0.0718 0.15825,0.13357 0.1819,0.21628c0.46664,1.59498 1.60074,2.83287 2.29094,4.30619c0.29802,0.63377 0.55446,1.28736 0.82309,1.9343c0.06083,0.1468 0.05026,0.34157 0.14414,0.4523c0.97471,1.14431 1.07821,2.66888 1.71452,3.96259c0.1787,0.36325 0.13637,0.89926 0.03738,1.31761c-0.09445,0.39947 -0.07086,0.72927 0.01202,1.1198c0.25204,1.19269 0.43262,2.40034 0.63836,3.6027c0.01634,0.0935 0.02745,0.19486 0.01279,0.28748c-0.29777,1.80823 -0.46544,3.6502 -0.93497,5.4125c-0.58819,2.2041 -1.4748,4.31364 -3.03731,6.05972c-0.40409,0.45264 -0.78031,0.9451 -1.08933,1.46649c-0.77677,1.31135 -1.81024,2.39828 -2.85772,3.4858c-0.5732,0.59387 -1.00625,1.3248 -1.5727,1.92787c-0.41069,0.43845 -0.93248,0.77368 -1.41134,1.14716c-0.60467,0.46992 -1.21316,0.93373 -1.82266,1.39751c-0.25664,0.19375 -0.51813,0.38236 -0.78054,0.56794c-0.15625,0.11158 -0.38513,0.17407 -0.47244,0.32364c-0.83809,1.42665 -2.41228,1.83085 -3.66782,2.67233c-0.60995,0.40975 -1.22316,0.8284 -1.87778,1.15584c-1.74478,0.87752 -3.21066,2.2182 -5.07519,2.91023c-2.31754,0.86116 -4.61538,1.7679 -7.01665,2.37356c-1.11854,0.28317 -2.27025,0.46635 -3.3554,0.84151c-1.50142,0.51833 -3.06729,0.63165 -4.60327,0.9239c-1.16581,0.22179 -2.32405,0.49382 -3.49486,0.68046c-1.93264,0.30993 -3.87056,0.59469 -5.81334,0.83931c-1.60946,0.20311 -3.2258,0.36702 -4.84385,0.48585c-1.73032,0.12663 -3.46639,0.17407 -5.19991,0.2726c-0.72448,0.04132 -1.44712,0.12372 -2.22541,0.19252c0.24973,0.71342 0.35754,1.42179 0.71728,1.96129c0.67052,1.00656 0.59076,2.15275 0.78379,3.23971c0.15402,0.87676 0.23262,1.80238 0.12552,2.67968c-0.20906,1.71473 -0.25993,3.45999 -0.80377,5.12714c-0.25878,0.79393 -0.40667,1.62805 -0.70794,2.40376c-0.30122,0.77371 -0.63797,1.56542 -1.12306,2.22683c-1.17315,1.59915 -2.25171,3.28403 -3.94448,4.44215c-2.10186,1.43555 -4.33409,2.4272 -6.8814,2.82161c-2.22878,0.34548 -4.45293,0.70411 -6.70469,0.69879c-2.20473,-0.00597 -4.40018,-0.19675 -6.58286,-0.58926zM326.00102,168.58721c-0.1093,0.11392 -0.24701,0.20703 -0.31473,0.33615c-0.29725,0.56474 -0.62326,1.12066 -0.85031,1.71441c-0.6412,1.67837 -1.38241,3.32087 -1.5321,5.16335c-0.05247,0.64576 -0.12041,1.30809 -0.22183,1.95146c-0.33847,2.14721 -0.31842,4.28165 0.08296,6.40998c0.21368,1.13457 0.61903,2.2486 0.69848,3.38933c0.12109,1.71416 0.7203,3.2559 1.3595,4.79879c0.26118,0.62772 0.5909,1.23738 1.10592,1.73429c1.38035,-1.42816 2.14744,-3.10093 2.8122,-4.83365c0.14911,-0.3869 0.39296,-0.76309 0.43534,-1.16104c0.16759,-1.59386 0.37888,-3.17647 0.72974,-4.74209c0.08836,-0.39664 0.05272,-0.82983 0.02351,-1.24284c-0.13431,-1.8816 -0.43947,-3.73608 -0.76551,-5.59515c-0.2658,-1.51621 -0.98034,-2.83816 -1.43775,-4.2658c-0.43251,-1.35391 -1.21659,-2.51777 -2.12541,-3.6572zM287.00514,149.81979c-0.44148,0.57062 -0.72562,1.09672 -1.1491,1.45777c-2.05899,1.75591 -3.22463,4.03755 -3.98141,6.57497c-0.27546,0.92251 -0.52216,1.85384 -0.81047,2.77098c-0.53913,1.7123 -1.20009,3.3821 -1.51325,5.16889c-0.44237,2.5274 -1.01711,5.031 -1.47744,7.55689c-0.23228,1.26688 -0.32424,2.55978 -0.49883,3.83832c-0.13041,0.95767 -0.23748,1.90399 -0.14837,2.88194c0.07151,0.78836 0.03224,1.60257 -0.07626,2.3888c-0.1542,1.12505 -0.24682,2.23086 -0.04013,3.36523c0.10122,0.55412 0.02939,1.14231 0.01902,1.71524c-0.00788,0.45096 -0.07985,0.90409 -0.05464,1.35199c0.06214,1.11623 0.16033,2.23149 0.25152,3.34655c0.21174,2.5681 0.64459,5.10049 1.28566,7.59282c0.28006,1.08744 0.67803,2.14424 1.02258,3.21552c0.14694,0.45938 0.25541,0.93468 0.44696,1.37333c0.41029,0.9411 0.92582,1.84019 1.28561,2.79786c0.76983,2.04782 1.87294,3.88008 3.3025,5.52658c0.2072,0.24102 0.46552,0.51351 0.51527,0.80304c0.11218,0.66047 0.74395,0.74755 1.08684,1.14151c0.493,0.56731 0.97866,0.13101 1.48168,-0.00268c0.26712,-0.0704 0.57439,0.02942 0.85185,-0.01768c1.78844,-0.30504 3.57429,-0.62417 5.35827,-0.94835c0.5953,-0.10704 1.19249,-0.21003 1.77613,-0.36442c1.30033,-0.343 2.5926,-0.71925 3.88839,-1.07838c0.86422,-0.24041 1.73207,-0.46772 2.59543,-0.71316c0.7373,-0.21003 1.48125,-0.40786 2.20293,-0.66635c1.13102,-0.40486 2.2823,-0.78313 3.3568,-1.31066c0.98823,-0.48397 1.88578,-1.15561 2.82871,-1.73492c0.1853,-0.11275 0.39484,-0.1988 0.60358,-0.25687c0.82795,-0.23145 1.66892,-0.60358 2.21841,-1.17312c0.56497,-0.5861 1.23247,-0.87416 1.8663,-1.27922c0.29451,-0.18867 0.54781,-0.44053 0.82221,-0.66079c0.99634,-0.80287 2.01587,-1.57707 2.98407,-2.41075c2.09021,-1.79803 4.04416,-3.72902 5.60624,-5.98532c-0.19712,-0.4188 -0.35834,-0.79856 -0.549,-1.16315c-0.86607,-1.65541 -1.56299,-3.38402 -2.01049,-5.19354c-0.15337,-0.61963 -0.38847,-1.21459 -0.51093,-1.83034c-0.22496,-1.12488 -0.27588,-2.28381 -0.49579,-3.41055c-0.53329,-2.72834 -0.17244,-5.44915 0.08695,-8.15484c0.14826,-1.5474 0.55278,-3.10048 1.06703,-4.57239c0.49246,-1.40951 1.2712,-2.7198 1.93202,-4.06948c0.16679,-0.34038 0.36222,-0.66793 0.57551,-1.06c-0.71451,-0.83275 -1.33982,-1.60092 -2.00932,-2.32834c-0.43371,-0.47158 -0.93005,-0.88693 -1.40174,-1.32458c-0.72896,-0.6771 -1.51749,-1.29987 -2.17462,-2.03994c-0.68815,-0.77497 -1.69514,-1.10487 -2.37337,-1.87655c-0.12595,-0.14366 -0.44782,-0.2579 -0.61158,-0.19855c-0.4812,0.17533 -0.81358,-0.09628 -1.16007,-0.29425c-1.0847,-0.62123 -2.15043,-1.27594 -3.22985,-1.90703c-2.31123,-1.35556 -4.83131,-2.2289 -7.34988,-3.08518c-1.36036,-0.46204 -2.78735,-0.72791 -4.18138,-1.09687c-0.46367,-0.12329 -0.90783,-0.33407 -1.37618,-0.43348c-2.78823,-0.59188 -5.57424,-1.19169 -8.37412,-1.72588c-1.2825,-0.24573 -2.59308,-0.3492 -3.76024,-0.5006zM235.78713,148.31832c0.22042,-0.01171 0.44428,-0.00331 0.66233,-0.0371c1.00679,-0.15331 2.01612,-0.46561 3.01785,-0.44199c1.32663,0.0319 2.62027,-0.04218 3.92497,-0.258c0.84934,-0.1398 1.73635,-0.05743 2.57655,-0.2275c1.23467,-0.25084 2.46788,-0.4507 3.72645,-0.41774c0.51785,0.0128 0.95935,-0.10364 1.31795,-0.46955c0.3761,-0.38341 0.83797,-0.3372 1.09758,-0.00465c0.34934,0.44816 0.75992,0.39887 1.20068,0.41346c1.68814,0.05424 3.3636,-0.32306 5.05522,-0.14568c0.40895,0.0427 0.82324,0.07354 1.2329,0.05624c1.59452,-0.06549 3.1885,-0.21702 4.78196,-0.21051c0.98029,0.004 1.98271,-0.34651 2.95371,0.0874c0.082,0.03636 0.19315,0.03253 0.28371,0.01411c1.26477,-0.25398 2.51026,0.02671 3.91951,0.10799c0.40958,-0.92468 0.80042,-1.8589 1.23567,-2.77184c0.45013,-0.94353 0.72796,-1.91399 0.67302,-2.96699c-0.00748,-0.15828 0.00111,-0.3191 0.01765,-0.47769c0.09222,-0.88173 0.24139,-1.76082 0.26661,-2.64346c0.01711,-0.59876 -0.01528,-1.25095 -0.23584,-1.79447c-0.63828,-1.57487 -1.34125,-3.12658 -2.09708,-4.64879c-0.68489,-1.37912 -1.752,-2.47605 -3.01317,-3.32842c-1.11297,-0.75209 -2.26493,-1.5053 -3.50231,-1.99985c-1.66369,-0.66479 -3.39873,-1.21357 -5.15121,-1.57177c-2.27173,-0.46207 -4.60383,-0.49169 -6.92566,-0.56604c-2.90553,-0.09302 -5.73837,0.35125 -8.56225,0.93683c-1.98253,0.41054 -3.97301,0.78385 -5.94306,1.24777c-1.65278,0.38895 -3.31948,0.77451 -4.9088,1.35835c-1.80061,0.66084 -3.50269,1.58461 -5.28122,2.31311c-2.35047,0.96326 -4.44862,2.47895 -6.92598,3.15647c-0.09276,0.02536 -0.17539,0.08102 -0.26364,0.12352c-2.09963,1.04246 -4.20117,2.08186 -6.29795,3.1294c-0.86162,0.42957 -1.74923,0.82338 -2.56601,1.32925c-1.52764,0.94575 -3.02857,1.93729 -4.50637,2.9595c-0.62666,0.43428 -1.1669,0.99508 -1.8727,1.60817c0.37299,0.04067 0.53081,0.0842 0.68426,0.07057c1.88357,-0.16827 3.78089,-0.25712 5.64684,-0.54394c2.06293,-0.31821 4.14071,-0.42091 6.20378,-0.67409c1.29907,-0.15896 2.52608,0.3833 3.84957,0.06998c0.89441,-0.21154 1.91913,0.02282 2.86717,0.17496c1.48982,0.23765 2.95679,0.6097 4.4453,0.85831c1.52138,0.25356 2.8313,0.80019 3.99571,1.88789c0.68309,0.63677 1.2163,1.30227 1.58309,2.12008c0.3123,0.6942 0.54955,1.42428 0.83317,2.17668zM234.23127,153.85814c0.64499,-0.0606 1.16907,-0.16068 1.68894,-0.14882c1.0157,0.02502 2.03029,0.15905 3.04561,0.16205c1.68551,0.00614 3.37094,-0.05474 5.05771,-0.09258c0.51153,-0.01139 0.80013,-0.34329 1.0171,-0.75926c0.70269,-1.34448 1.36502,-2.71212 2.4303,-3.82715c0.08248,-0.08568 0.06083,-0.27337 0.11738,-0.57188c-1.72847,0.23673 -3.33361,0.46398 -4.94318,0.67109c-0.50605,0.06457 -1.01936,0.10293 -1.5306,0.10433c-0.92748,0.00351 -1.85796,-0.06309 -2.78609,-0.03659c-0.6358,0.01885 -1.27299,0.12169 -1.90242,0.23276c-0.20412,0.03618 -0.48317,0.17427 -0.55694,0.34023c-0.54886,1.24783 -1.05526,2.51489 -1.63779,3.92582zM231.50961,166.5866c1.37387,-0.04578 2.74437,-0.14868 4.11729,-0.19649c1.37695,-0.04869 2.75633,-0.04229 4.13423,-0.08896c1.03241,-0.03453 1.1092,-0.13137 1.34931,-1.11192c0.5632,-2.30986 1.13337,-4.61851 1.70749,-6.92506c0.22934,-0.91882 0.47555,-1.83317 0.73956,-2.84504c-0.40683,-0.01162 -0.6892,-0.0377 -0.97169,-0.02476c-1.40934,0.06177 -2.81842,0.14956 -4.22833,0.19631c-0.64185,0.02068 -1.28742,-0.00377 -1.92704,-0.06106c-0.50391,-0.04541 -1.00173,-0.16368 -1.49899,-0.26692c-0.39184,-0.08122 -0.77888,-0.19032 -1.20902,-0.29665c-0.11541,0.36285 -0.2052,0.59938 -0.26621,0.84374c-0.20712,0.84143 -0.30436,1.72401 -0.62518,2.51817c-1.03675,2.56744 -1.87593,5.18754 -2.40277,8.08067c0.40715,0.07066 0.74689,0.18941 1.08136,0.17796zM228.45581,179.17552c3.52382,0.02165 6.98561,-0.09652 10.49906,0.00787c0.55623,-1.89088 0.52368,-3.76258 0.78392,-5.58789c0.26292,-1.84924 0.51985,-3.69866 0.79486,-5.65561c-3.63563,0.21525 -7.14854,-0.15323 -10.68084,0.47213c-0.9505,3.57531 -1.82832,7.05766 -1.39699,10.76349zM219.62732,187.88992c-0.73496,-0.11704 -1.36541,-0.21509 -1.99473,-0.3181c-0.94998,-0.1542 -1.91685,-0.24285 -2.84535,-0.48346c-1.37138,-0.35631 -2.74291,-0.67262 -4.15907,-0.79211c-0.47806,-0.03967 -0.834,-0.04684 -1.11023,0.48249c-0.24233,0.46327 -0.68375,0.82181 -1.04526,1.21964c-0.45244,0.49928 -1.15621,0.48117 -1.68985,0.81107c-1.69971,1.05088 -3.59653,1.05271 -5.48453,0.99076c-0.88055,-0.02816 -1.749,-0.30508 -2.6309,-0.3913c-1.15127,-0.11193 -2.31006,-0.13603 -3.364,-0.71337c-0.21968,-0.11932 -0.49328,-0.13714 -0.74041,-0.20623c-1.11255,-0.3119 -2.28698,-0.48852 -3.32064,-0.97024c-1.39694,-0.65216 -2.8064,-1.25166 -4.26728,-1.73159c-0.97623,-0.32101 -2.04588,-0.45362 -2.93357,-0.93217c-1.92413,-1.03838 -4.03424,-1.4148 -6.09157,-1.9928c-0.33543,-0.09462 -0.69734,-0.13797 -1.04657,-0.13495c-0.54232,0.00351 -1.00682,-0.12581 -1.36333,-0.53316c0.08434,-0.64085 0.35014,-1.12046 0.9948,-1.27411c0.277,-0.06612 0.57054,-0.08074 0.85705,-0.09456c0.59601,-0.02699 1.25029,0.11276 1.77625,-0.0883c1.06008,-0.40789 2.10677,-0.80216 3.21889,-1.0705c2.38543,-0.5761 4.72159,-1.3537 7.12652,-1.84221c1.22259,-0.24818 2.41484,-0.55526 3.57894,-0.99719c0.38836,-0.14697 0.80344,-0.24915 1.21516,-0.30342c1.51641,-0.20277 3.05273,-0.26192 4.53921,-0.67763c0.20977,-0.05903 0.44802,-0.02922 0.67295,-0.02379c1.01773,0.02408 2.03554,0.08017 3.05307,0.07623c1.19663,-0.00482 2.4059,-0.17235 3.46678,0.61727c0.19495,0.14463 0.48891,0.15003 0.72833,0.2439c1.11877,0.44413 2.15081,0.98283 2.47033,2.29949c0.02773,0.11484 0.14617,0.20626 0.22225,0.30947c0.20229,0.27289 0.40558,0.54581 0.68106,0.91783c3.07383,-0.2303 6.23257,-0.49119 9.39537,-0.89402c0.15942,-1.06288 -0.32546,-1.98411 -0.62971,-2.89016c-0.46192,-1.37475 -1.40682,-2.51221 -2.40224,-3.56206c-0.50402,-0.53161 -1.06673,-1.03989 -1.68597,-1.42574c-2.49272,-1.55083 -5.29869,-2.25726 -8.12657,-2.86227c-1.00028,-0.21466 -2.02891,-0.31208 -3.04813,-0.42423c-1.30944,-0.14346 -2.62022,-0.27495 -3.93425,-0.36252c-0.95758,-0.06338 -1.92493,-0.10002 -2.88371,-0.05138c-1.17918,0.05935 -2.36246,0.15759 -3.52642,0.34942c-1.83542,0.3037 -3.65531,0.69388 -5.47945,1.05793c-1.70036,0.33857 -3.4079,0.64793 -5.09315,1.05296c-1.46763,0.35123 -2.91024,0.80721 -4.35811,1.23703c-1.13811,0.33763 -2.28098,0.66712 -3.39504,1.07347c-1.04732,0.38124 -2.05833,0.85756 -3.08709,1.28935c-1.24435,0.51967 -2.49718,1.02109 -3.73211,1.56104c-0.73342,0.31918 -1.41471,0.77491 -2.16538,1.03258c-1.57807,0.54015 -3.20247,0.91591 -4.74438,1.59114c-1.34131,0.58693 -2.83939,0.77822 -4.11755,1.57104c-0.34523,0.21323 -0.78508,0.27169 -1.17909,0.40649c-1.00119,0.34254 -2.00047,0.68814 -3.00072,1.03272c-0.02462,0.09133 -0.05029,0.18464 -0.07491,0.27597c0.27689,0.18298 0.53347,0.4114 0.834,0.53704c0.46961,0.19549 0.98331,0.2832 1.44975,0.4846c0.85194,0.36448 1.67923,0.78628 2.52365,1.16856c1.07856,0.486 2.16674,0.95027 3.24536,1.43428c0.81984,0.36757 1.62585,0.76375 2.44686,1.12534c0.67475,0.29839 1.40865,0.48743 2.0352,0.86248c1.21479,0.72499 2.45614,1.36071 3.82184,1.74087c0.21337,0.06012 0.41006,0.17878 0.61655,0.26972c1.04432,0.45901 2.08963,0.91806 3.13498,1.3761c1.46423,0.64308 2.90787,1.3416 4.40026,1.90946c1.3677,0.52028 2.70352,1.10567 4.15762,1.43833c1.42625,0.32687 2.82313,0.80596 4.27508,1.07354c0.41997,0.07703 0.80641,0.34717 1.20305,0.54058c0.39867,0.19246 0.77183,0.47224 1.19088,0.58125c0.60872,0.15845 1.25689,0.16196 1.87329,0.29662c1.62748,0.35663 3.24113,0.77689 4.87104,1.11858c1.80495,0.37771 3.61387,0.75653 5.43715,1.01771c0.92759,0.13255 1.89277,0.00006 2.84107,0.00315c0.3121,0.00091 0.63129,0.10407 0.93742,0.0688c1.65118,-0.19292 3.27372,-0.5037 4.8789,-0.97705c3.2659,-0.96512 5.79441,-2.9427 7.95299,-5.48809c0.02071,-0.02442 0.03361,-0.05606 0.05332,-0.08051c0.53038,-0.63611 1.06168,-1.26919 1.5891,-1.90639c0.09736,-0.11627 0.26895,-0.27443 0.24373,-0.37219c-0.18167,-0.71448 0.29805,-1.15296 0.74124,-1.67851zM206.71123,178.39515c-0.85759,-0.55172 -1.81689,-0.7652 -2.80108,-0.87736c-0.82666,-0.09365 -1.66164,-0.17653 -2.49224,-0.16725c-1.02173,0.01082 -2.04796,0.07454 -3.06295,0.1996c-1.49388,0.18441 -2.99127,0.38672 -4.46347,0.6878c-1.24783,0.25646 -2.45597,0.69914 -3.69601,0.99784c-1.14836,0.27631 -2.33219,0.39355 -3.42672,0.88649c-0.34657,0.15516 -0.72699,0.23433 -1.0941,0.33789c-1.52495,0.43162 -3.05076,0.85822 -4.57662,1.28681c0.38761,0.29919 0.82229,0.38664 1.1998,0.58451c0.72445,0.37985 1.52795,0.54886 2.19996,1.11829c0.46104,0.39033 1.25423,0.39498 1.90294,0.55458c0.61886,0.15374 1.27239,0.21443 1.86007,0.44431c0.88938,0.34954 1.73555,0.8109 2.60014,1.22276c0.14411,0.06814 0.28263,0.15714 0.43348,0.19946c1.37644,0.38947 2.75505,0.773 4.13477,1.15256c1.17423,0.32367 2.34284,0.66919 3.52739,0.94713c0.5257,0.12306 1.10152,0.03247 1.62399,0.16345c1.54057,0.38716 2.99338,0.13455 4.47303,-0.35739c1.08976,-0.36102 1.85413,-1.13351 2.78484,-1.77519c-0.13112,-0.06777 -0.2084,-0.129 -0.29582,-0.15051c-1.96537,-0.47033 -3.92965,-0.94362 -5.89939,-1.40107c-0.7782,-0.1793 -1.57324,-0.29405 -2.3491,-0.48529c-0.82455,-0.20263 -0.98368,-0.76041 -0.43556,-1.42202c0.2539,-0.30787 0.55058,-0.46747 0.98591,-0.50805c0.82452,-0.07648 1.64022,-0.26426 2.45517,-0.42605c0.98703,-0.19689 1.96794,-0.42497 2.95585,-0.61783c0.74952,-0.14765 1.50513,-0.26312 2.26014,-0.39261c0.23642,-1.13171 -0.01753,-1.69719 -0.80441,-2.20287zM244.93924,189.40948c1.6016,0.24684 3.18461,0.61921 4.77642,0.9288c0.28054,0.05504 0.56988,0.08231 0.85662,0.09551c1.00202,0.04864 2.0053,0.08831 3.00866,0.12498c0.60561,0.02231 1.21188,0.05664 1.81752,0.04293c1.68268,-0.03495 3.40195,0.29528 5.00907,-0.52615c0.21317,-0.10796 0.50334,-0.07465 0.75895,-0.09236c1.23684,-0.08171 2.34059,-0.47734 3.38899,-1.17669c1.09224,-0.7281 1.78085,-1.71984 2.32157,-2.89287c-0.05298,-0.24661 -0.09585,-0.53195 -0.17498,-0.80833c-0.40286,-1.41108 -1.07379,-2.64875 -2.48701,-3.25636c-0.85088,-0.36645 -1.74771,-0.73522 -2.65503,-0.84217c-2.09383,-0.2459 -4.15319,-0.71791 -6.28441,-0.77581c-3.24082,-0.0876 -6.47587,-0.06198 -9.71187,0.06664c-1.27696,0.05055 -2.54907,0.28131 -3.82652,0.31384c-2.62402,0.06808 -5.25057,0.05006 -7.87559,0.0831c-2.63504,0.03375 -5.27036,0.0775 -7.905,0.13228c-2.05705,0.04227 -4.11472,0.07151 -6.16851,0.17489c-1.40657,0.06986 -2.80743,0.25492 -4.20994,0.39292c-2.00647,0.19777 -4.02039,0.34131 -6.01512,0.61845c-1.81897,0.25315 -3.61812,0.65293 -5.58938,1.01878c0.52741,0.48326 1.0384,0.49086 1.53095,0.54895c0.37887,0.04484 0.76654,0.06192 1.13399,0.15645c0.55717,0.14197 1.09015,0.3953 1.65127,0.50437c0.87847,0.17116 1.77353,0.25176 2.658,0.38807c0.97911,0.15003 1.99718,0.19712 2.92578,0.50477c1.65398,0.54946 3.3913,0.56309 5.06547,0.96607c1.13665,0.27358 2.32077,0.35643 3.48481,0.51174c0.3767,0.05078 0.76437,0.03284 1.13762,0.09953c1.0909,0.19424 2.16957,0.46616 3.26578,0.61453c1.31843,0.17873 2.64615,0.20766 3.96655,0.49249c1.55005,0.33541 3.16134,0.38345 4.74618,0.55178c0.88073,0.09219 1.76542,0.15048 2.64241,0.26858c1.14213,0.15168 2.27296,0.38408 3.41575,0.51277c1.10886,0.12572 2.24043,0.08703 3.34101,0.25753zM228.2216,197.14116c1.16955,0.03242 2.34153,0.0499 3.51002,0.01426c1.11643,-0.03413 2.22992,-0.14037 3.34341,-0.21159c0.9872,-0.06283 1.97736,-0.1946 2.95962,-0.15453c0.63748,0.02722 1.19903,-0.05378 1.8128,-0.35237c-0.20009,-1.96051 -0.40203,-3.92608 -0.60769,-5.93678c-0.59473,-0.12304 -1.12174,-0.27015 -1.65907,-0.33652c-1.00679,-0.12681 -2.02152,-0.18581 -3.02836,-0.31062c-2.00275,-0.2473 -4.00294,-0.51454 -6.00303,-0.78477c-0.46135,-0.0642 -0.82589,0.01942 -0.96723,0.48457c0.00882,0.6015 -0.04213,1.19428 -0.10507,1.78673c-0.04481,0.41289 -0.1697,0.82749 -0.14534,1.23535c0.0598,1.02313 0.18172,2.04302 0.28362,3.06335c0.03807,0.38324 0.04878,0.77871 0.15236,1.14482c0.04358,0.15531 0.29202,0.35348 0.45396,0.35811zM241.92626,200.42992c0.05063,1.13391 0.16547,2.26165 0.31564,3.37839c0.10484,0.77731 0.44553,1.52835 0.71925,2.27747c0.51679,1.41534 1.0406,2.82988 1.60188,4.22848c0.2503,0.6234 0.61195,1.20097 0.89966,1.81043c0.64899,1.3751 1.42536,2.6688 2.4978,3.75387c0.42782,0.4324 0.68046,0.9038 0.6304,1.60566c0.71628,-0.03456 1.35302,-0.05138 1.98873,-0.10224c0.73596,-0.058 1.46872,-0.17912 2.20599,-0.21308c1.09184,-0.04884 2.18628,-0.04858 3.27906,-0.06037c0.90166,-0.01025 1.80669,0.03662 2.70472,-0.02176c1.88126,-0.12232 3.75912,-0.30076 5.63907,-0.44712c0.60558,-0.04672 1.21633,-0.02927 1.81763,-0.10113c1.4375,-0.17201 2.86655,-0.36328 4.32021,-0.15567c0.42843,0.06126 0.88095,-0.02085 1.31929,-0.06134c0.92879,-0.08451 1.85364,-0.20614 2.78298,-0.27463c1.49873,-0.10924 3.00152,-0.18535 4.50188,-0.28154c0.50614,-0.03256 1.01801,-0.16099 1.51378,-0.11081c1.17018,0.11547 2.23874,-0.20414 3.3588,-0.54029c-0.16022,-0.20466 -0.27597,-0.32001 -0.35208,-0.45724c-0.29331,-0.51859 -0.51413,-1.08813 -0.86781,-1.55942c-1.01764,-1.35762 -1.89434,-2.78124 -2.34832,-4.43388c-0.0335,-0.12301 -0.06572,-0.25598 -0.13577,-0.36002c-0.82306,-1.23501 -1.42547,-2.59477 -1.84767,-3.9944c-0.55925,-1.85473 -1.23735,-3.68184 -1.52514,-5.61885c-0.22999,-1.5442 -0.5554,-3.07512 -0.81449,-4.61615c-0.07871,-0.46644 -0.07297,-0.94747 -0.11447,-1.42085c-0.04852,-0.54261 -0.10807,-1.08453 -0.15959,-1.62722c-0.05249,-0.54372 -0.14197,-1.0885 -0.14442,-1.63279c-0.0052,-1.1136 0.08765,-2.22741 0.04938,-3.33895c-0.11332,-3.31659 -0.05071,-6.62815 0.26762,-9.92641c0.15922,-1.65113 0.53799,-3.28297 0.85077,-4.91671c0.41726,-2.17397 0.85343,-4.3444 1.30648,-6.51034c0.25707,-1.22416 0.43657,-2.46454 1.03141,-3.60601c0.35134,-0.67224 0.61684,-1.42096 0.76018,-2.16617c0.41261,-2.15109 1.14174,-4.17609 2.20065,-6.08363c0.20143,-0.36239 0.53307,-0.66004 0.68586,-1.03583c0.38185,-0.93448 1.16944,-1.50421 1.90674,-2.30948c-0.58916,-0.10787 -1.08667,-0.23713 -1.59255,-0.2836c-2.33482,-0.21477 -4.67209,-0.41361 -7.01071,-0.60048c-0.51205,-0.04064 -1.03206,0.02253 -1.54428,-0.01211c-2.59014,-0.17205 -5.17786,-0.39405 -7.77009,-0.52814c-1.04492,-0.05287 -2.09754,0.09413 -3.14754,0.11415c-2.43138,0.04858 -4.86236,0.04814 -7.2924,0.11977c-1.57493,0.04504 -3.15311,0.134 -4.71862,0.30435c-0.5369,0.05869 -1.13054,0.31784 -1.54274,0.66921c-0.70237,0.59818 -1.30524,1.32026 -1.90665,2.02637c-0.91509,1.0753 -1.68969,2.24065 -2.23952,3.55749c-0.68952,1.65398 -1.42848,3.28754 -2.13973,4.9319c-0.06315,0.14426 -0.07591,0.31096 -0.10938,0.46707c-0.26995,1.2548 -0.54087,2.50858 -0.80982,3.76341c-0.03938,0.18795 -0.07677,0.37596 -0.11118,0.56505c-0.21826,1.19625 -0.42857,2.39474 -0.65477,3.58876c-0.12498,0.6627 -0.29968,1.31498 -0.40772,1.98016c-0.16373,1.00373 -0.28863,2.01358 -0.43046,3.02094c-0.1195,0.85594 -0.28486,1.70656 -0.34743,2.56612c-0.06249,0.85656 0.10767,1.72878 -0.30414,2.55636c-0.08908,0.17653 0.0664,0.47709 0.11815,0.76669c0.46958,-0.01359 0.88741,-0.00166 1.29984,-0.04589c0.85694,-0.09056 1.70787,-0.28634 2.56375,-0.3049c2.86594,-0.06217 5.73286,-0.0883 8.59886,-0.08244c1.56856,0.0028 3.13835,0.06766 4.70422,0.16443c0.76197,0.04678 1.51829,0.22145 2.27476,0.35612c0.49868,0.08828 0.98974,0.23336 1.49076,0.3097c1.0897,0.16619 2.05745,0.67904 3.08183,1.03044c2.28252,0.78451 3.47432,2.41922 3.77825,4.77186c0.04018,0.30927 0.11952,0.61366 0.14657,0.75249c-0.23196,0.38053 -0.43391,0.62086 -0.5359,0.89906c-0.9118,2.46596 -2.75422,3.78488 -5.24529,4.31195c-0.50022,0.10576 -1.09672,0.04469 -1.49122,0.30153c-0.44753,0.29234 -0.87287,0.33321 -1.34451,0.34874c-0.86519,0.0293 -1.73138,0.05857 -2.59817,0.07382c-2.95862,0.04952 -5.90253,0.00442 -8.83731,-0.53562c-2.13964,-0.39327 -4.32449,-0.53473 -6.49041,-0.77869c-0.34603,-0.0389 -0.6976,-0.02393 -1.04046,-0.03373c-0.06252,0.19229 -0.14211,0.31707 -0.13346,0.43437c0.14708,1.81994 0.29113,3.6408 0.46629,5.45854c0.12563,1.31012 0.37056,2.61165 0.42708,3.9248zM241.97548,208.05544c-0.50756,-1.63316 -1.2193,-3.08808 -1.37717,-4.70525c-0.15973,-1.62222 -0.40477,-3.23488 -0.6178,-4.88264c-3.99408,-0.15914 -7.85617,0.66389 -11.90834,0.57712c0.60144,3.14446 1.2368,6.22186 2.11395,9.24015c3.92294,0.33818 7.78902,0.00547 11.78936,-0.22937zM238.89598,217.86749c0.13277,-0.06023 0.31821,-0.00291 0.47935,-0.00531c1.21825,-0.02622 2.43669,-0.05943 3.65465,-0.07565c0.57245,-0.00765 1.14488,0.02071 1.7171,0.02105c0.72128,0.0006 1.4439,-0.01076 2.39854,-0.0195c-0.79842,-1.18729 -1.42233,-2.1445 -2.07489,-3.07952c-0.82843,-1.18715 -1.55416,-2.43238 -2.09914,-3.77149c-0.44399,-1.09213 -0.41172,-1.17124 -1.57433,-1.13143c-3.07837,0.10912 -6.15335,0.27436 -9.22989,0.42456c-0.33561,0.01642 -0.6677,0.08496 -1.00311,0.1294c0.44516,1.57636 1.35481,2.82685 2.04216,4.19004c0.73278,1.45352 2.0597,2.31577 3.06517,3.43395c0.89172,0.19755 1.76882,0.27663 2.62439,-0.11609zM256.43496,241.64712c1.11389,-0.12023 2.22101,-0.3187 3.31979,-0.5404c0.65302,-0.1314 1.31341,-0.31061 1.91656,-0.5875c1.26506,-0.5791 2.49718,-1.23118 3.73685,-1.86703c0.16448,-0.08434 0.32247,-0.22188 0.42683,-0.37296c0.73813,-1.07936 1.76325,-1.90942 2.40842,-3.09648c0.51091,-0.93479 1.08896,-1.83865 1.34834,-2.86366c0.35986,-1.4253 0.93137,-2.80054 0.98646,-4.30858c0.04396,-1.18823 0.30582,-2.37023 0.30465,-3.55475c-0.00006,-1.04843 -0.1031,-2.13382 -0.39264,-3.13449c-0.32598,-1.12577 -0.91328,-2.17397 -1.43727,-3.37243c-0.95413,0.06077 -1.81437,0.12723 -2.67491,0.16867c-1.31435,0.06349 -2.62947,0.08393 -3.94162,0.17549c-1.27605,0.08859 -2.54533,0.29042 -3.82178,0.35799c-1.79544,0.09476 -3.59919,0.06023 -5.39129,0.17809c-1.79512,0.11878 -3.57706,0.44101 -5.37115,0.52381c-2.37306,0.10827 -4.75212,0.0763 -7.12849,0.09044c-0.34817,0.00106 -0.70297,-0.15114 -1.04117,-0.11378c-1.17821,0.1304 -2.35341,0.2959 -3.52322,0.48257c-0.41709,0.06711 -0.59539,0.39015 -0.72513,0.79962c-0.39798,1.25414 -0.92905,2.47447 -1.73584,3.50585c-1.5773,2.01877 -3.58177,3.47712 -6.04822,4.26299c-1.49722,0.47643 -2.97964,0.9953 -4.46941,1.49096c-1.31098,0.43573 -2.63144,0.81818 -4.03041,0.83223c-0.23116,0.0024 -0.4627,0.05281 -0.6946,0.08119c-0.01288,0.06566 -0.02576,0.13132 -0.03861,0.19598c1.11666,0.5181 2.23012,1.04312 3.35003,1.55231c1.27596,0.57968 2.56809,1.1188 3.83143,1.72013c1.93055,0.91851 3.8061,1.9415 5.80109,2.7408c1.27294,0.51056 2.50689,1.09004 3.84894,1.42251c0.89803,0.22174 1.75251,0.67233 2.659,0.80827c1.88677,0.28 3.64611,1.02856 5.5372,1.33269c1.69588,0.27355 3.37062,0.72657 5.08033,1.00651c2.64172,0.43263 5.27365,0.36777 7.90986,0.08295z" fill="#30419a" fill-rule="nonzero"/><path d="M278.52639,155.08177c-0.72993,-0.08288 -0.88041,-0.73344 -0.97409,-1.23633c-0.05372,-0.29065 0.32955,-0.71488 0.60078,-0.99925c0.2712,-0.28337 0.95692,-0.26378 1.23921,-0.05963c0.27546,0.19795 0.26255,0.71979 0.10458,1.20648c-0.17119,0.52933 -0.50557,0.85291 -0.97049,1.08873z" fill="#30419a" fill-rule="evenodd"/><path d="M274.35469,172.4477c-1.06302,0.19572 -1.50373,0.07408 -1.72084,-0.45033c-0.21514,-0.52336 -0.12141,-1.17795 0.2034,-1.41177c0.37179,-0.26749 1.09972,-0.21968 1.51175,0.10022c0.4541,0.35311 0.46141,0.7975 0.00568,1.76188z" fill="#30419a" fill-rule="evenodd"/><path d="M272.49353,194.72964c0.52898,0.25321 1.00562,0.48292 1.53066,0.73402c-0.29974,0.68672 -0.27192,1.46383 -1.14028,1.60409c-0.42814,0.0688 -1.01798,-0.33021 -1.19385,-0.82744c-0.24984,-0.70943 0.31944,-1.02629 0.80347,-1.51067z" fill="#30419a" fill-rule="evenodd"/><path d="M277.84903,213.20513c-0.2555,-0.09133 -0.46018,-0.17521 -0.6715,-0.23728c-0.42266,-0.12312 -0.76489,-0.25995 -0.6904,-0.83606c0.09733,-0.74552 0.2365,-0.99465 0.77846,-1.16024c0.36736,-0.11255 0.76886,-0.15911 0.92799,0.2236c0.15813,0.38267 0.21305,0.84143 0.18118,1.25669c-0.01874,0.23556 -0.30299,0.45053 -0.52573,0.75329z" fill="#30419a" fill-rule="evenodd"/><g><path d="M313.52323,184.9275l-1.31027,3.94719l-2.93867,4.91807l-4.18915,3.48177l-5.27114,1.04988l-7.59561,-1.41752l-4.04934,-5.0177l-1.25647,-8.43933l2.03803,-4.94381l4.84594,-5.39079l5.14756,-1.97679l5.78464,0.16528l4.35891,1.18598l3.67552,4.09565l0.76005,8.34211" fill="#ef463c" fill-rule="evenodd"/><path d="M308.12518,185.16742l-0.78308,2.96784l-2.8814,3.01894l-4.19758,1.78084l-3.73648,-0.10676l-2.3369,-2.06759l-1.22538,-6.02646l1.847,-5.26039l4.26641,-2.5792l5.08692,0.14535l3.41446,2.79866l0.54603,5.32877" fill="#ffffff" fill-rule="evenodd"/><path d="M314.66483,183.38247c-0.29571,1.59621 -0.43523,3.15286 -0.89204,4.6104c-0.57028,1.82246 -1.31298,3.58696 -2.57496,5.10854c-0.8817,1.06225 -1.76608,2.11342 -2.73743,3.09208c-0.59536,0.59924 -1.31441,0.97586 -2.0707,1.36041c-1.48105,0.75101 -3.02814,1.187 -4.63788,1.50515c-0.8029,0.16013 -1.5733,0.16313 -2.383,0.07097c-0.9872,-0.11224 -1.99133,-0.0519 -2.98761,-0.09137c-1.73678,-0.06763 -3.38825,-0.565 -4.86021,-1.4274c-1.47291,-0.86442 -2.63626,-2.12916 -3.43125,-3.6815c-0.45767,-0.89344 -0.974,-1.76454 -1.33962,-2.69336c-0.39255,-1.00162 -0.7658,-2.01369 -0.78365,-3.13966c-0.01602,-1.0849 -0.21519,-2.16703 -0.33232,-3.24982c-0.01745,-0.15956 -0.07054,-0.33215 -0.03139,-0.47709c0.47304,-1.71019 0.65914,-3.56663 1.76152,-4.99973c0.79068,-1.02784 1.21325,-2.26727 2.06491,-3.22334c1.06354,-1.19411 2.1331,-2.38905 3.55093,-3.20289c0.80145,-0.4593 1.59478,-0.94984 2.32708,-1.51015c1.1312,-0.86604 2.48327,-1.12954 3.78466,-1.54454c0.05755,-0.01836 0.13052,-0.01628 0.18907,0.0004c1.22861,0.34623 2.49373,-0.02479 3.71951,0.17531c1.09929,0.18047 2.18462,0.46459 3.26167,0.75847c1.01747,0.27817 2.00458,0.67353 3.02673,0.92783c0.54732,0.13669 0.97272,0.37393 1.38329,0.74481c0.4252,0.3843 0.9804,0.63026 1.38203,1.03389c0.83623,0.84423 1.62082,1.81503 1.749,3.00118c0.09333,0.86502 0.36219,1.67903 0.44887,2.53185c0.14931,1.46186 0.2796,2.92418 0.4128,4.31955zM298.30063,197.44083c1.94201,0.23756 3.83149,-0.13762 5.64507,-0.65704c1.25372,-0.35734 2.53965,-0.89683 3.42249,-1.99906c0.15976,-0.19952 0.24744,-0.46712 0.43034,-0.63597c1.03478,-0.95784 1.94412,-2.00729 2.55519,-3.29637c0.40775,-0.86071 0.93362,-1.65401 1.09579,-2.63778c0.1745,-1.06545 0.51328,-2.1032 0.75255,-3.1598c0.10636,-0.46615 0.21626,-0.95121 0.20275,-1.42379c-0.0552,-1.84933 -0.47214,-3.67799 -0.30684,-5.54202c0.0102,-0.11175 -0.07834,-0.23433 -0.12606,-0.34974c-0.1318,-0.3239 -0.2808,-0.64128 -0.39846,-0.96978c-0.59835,-1.67677 -1.54377,-3.00632 -3.38224,-3.47102c-0.27712,-0.06994 -0.53969,-0.19349 -0.81558,-0.2714c-1.0093,-0.28394 -2.02749,-0.53713 -3.03013,-0.84389c-0.98286,-0.29919 -1.99873,-0.35323 -3.00049,-0.51591c-1.07944,-0.1749 -2.11719,-0.16354 -3.10496,0.23441c-1.18612,0.47732 -2.36272,1.00693 -3.4655,1.64869c-0.78742,0.4587 -1.51336,1.07622 -2.14359,1.74049c-0.74264,0.78211 -1.37044,1.67654 -2.01752,2.54542c-1.01436,1.36358 -2.0121,2.74065 -2.25937,4.4973c-0.03016,0.21523 -0.19075,0.40872 -0.25393,0.624c-0.08854,0.29759 -0.19535,0.60467 -0.19806,0.90971c-0.0042,0.60213 0.14234,1.21556 0.07442,1.80686c-0.19318,1.68417 0.29476,3.23374 0.9253,4.72936c0.46655,1.10778 1.06847,2.1694 1.71067,3.18716c0.59724,0.94544 1.05711,2.07704 2.32896,2.38049c0.02685,0.00577 0.04475,0.0443 0.06914,0.066c0.60595,0.57054 1.33551,0.84149 2.15395,0.9429c1.04871,0.13001 2.09115,0.30485 3.13612,0.46076z" fill="#30419a" fill-rule="nonzero"/><path d="M291.43045,185.75984c0.13995,-1.53663 0.26264,-2.74962 0.88819,-3.8452c0.079,-0.1388 0.16233,-0.28948 0.18678,-0.44485c0.18039,-1.13131 0.83035,-2.10114 1.60372,-2.76833c1.1262,-0.97123 2.04066,-2.23463 3.70292,-2.6053c1.75289,-0.39109 3.41989,-0.50753 5.18454,-0.15499c1.43441,0.28609 2.75862,0.7531 4.01016,1.48714c0.65825,0.38596 1.16569,0.86765 1.37586,1.63496c0.08331,0.3055 0.28163,0.57728 0.41129,0.8711c0.10439,0.23308 0.27634,0.48209 0.26072,0.71374c-0.05386,0.76477 0.22059,1.45289 0.40232,2.16537c0.05492,0.21366 0.0935,0.43885 0.09922,0.6591c0.05192,1.89426 -0.55087,3.59373 -1.58182,5.15292c-0.42349,0.64117 -0.89995,1.2458 -1.35194,1.86915c-0.89672,1.23789 -2.15587,1.99524 -3.5062,2.61793c-1.41622,0.65282 -2.90342,1.05851 -4.47089,1.01772c-1.65544,-0.0433 -3.13995,-0.57191 -4.35908,-1.74021c-0.29699,-0.2846 -0.60946,-0.55263 -0.89823,-0.845c-0.78951,-0.79888 -1.3254,-1.72056 -1.39834,-2.87911c-0.02302,-0.3498 -0.14026,-0.69329 -0.20734,-1.04135c-0.13657,-0.71719 -0.27012,-1.4353 -0.35188,-1.86481zM298.63001,192.42519c0.82384,-0.05249 1.59581,0.02959 2.27904,-0.17898c0.77914,-0.23884 1.50444,-0.69431 2.20425,-1.13251c0.59179,-0.36925 1.1908,-0.78131 1.64676,-1.2985c0.54287,-0.61775 0.97875,-1.34259 1.38946,-2.06216c0.70354,-1.23441 1.25372,-2.52822 1.09884,-4.00525c-0.06374,-0.60507 -0.04161,-1.23969 -0.22656,-1.80421c-0.11952,-0.36856 -0.24022,-0.69614 -0.24481,-1.09544c-0.00594,-0.66744 -0.31027,-1.22036 -0.79807,-1.68948c-0.99793,-0.96189 -2.21578,-1.43987 -3.54347,-1.71491c-1.34359,-0.27849 -2.66283,-0.18413 -3.94996,0.25729c-1.81657,0.62437 -3.00546,1.96896 -3.81139,3.63562c-0.43911,0.90783 -0.67004,1.91765 -0.9818,2.88514c-0.03624,0.11301 0.03467,0.2571 0.01516,0.37959c-0.13912,0.84237 0.11649,1.62999 0.25823,2.44637c0.24501,1.40357 0.60461,2.68336 1.60108,3.80128c0.88115,0.98757 1.9213,1.41745 3.06323,1.57613z" fill="#30419a" fill-rule="nonzero"/></g></g><g stroke="none" stroke-width="1"><g><path d="M203.37939,158.27978l-10.32616,-0.63219l-2.97187,0.47831l-1.63619,0.92865l-1.49045,1.04486l-2.15578,0.80176l-2.74908,0.55871l-3.49949,-0.66322l-0.99131,-0.7036l-0.69306,-1.93358l-0.50831,0.7738l-1.67737,1.03952l-2.85246,0.25563l-3.53213,-0.85123l-2.80485,-2.70621l0.11462,-4.01136l1.02236,-3.00903l2.21681,-2.93788l-0.68614,-3.47101l1.03101,-3.34692l2.57775,-2.44037c0,0 3.81444,0.10899 3.9274,0.11222c0.11195,0.0032 4.37512,2.7891 4.37512,2.7891l5.13941,6.18631l5.39171,3.86857l3.56297,1.97757l3.84086,1.81044l4.99838,3.24408z" fill="#ffffff" fill-rule="evenodd"/><path d="M167.91274,146.24189c-0.89992,-1.06614 -0.74298,-2.32217 -0.4132,-3.50023c0.36223,-1.29818 0.87276,-2.57012 1.4607,-3.78482c0.9942,-2.05844 3.63292,-3.13152 5.83845,-2.52328c2.33559,0.64297 4.31467,1.85899 5.93829,3.64609c0.8011,0.88324 1.55388,1.81212 2.3016,2.74286c1.84127,2.29252 3.75809,4.46216 6.30136,6.06445c2.24748,1.41577 4.56325,2.64741 6.98894,3.70813c1.35665,0.59199 2.71863,1.20714 3.97923,1.97446c1.41891,0.86388 2.9226,1.56111 4.34174,2.41699c0.37959,0.22994 0.81264,0.37436 1.21839,0.56403c0.17376,0.081 0.35977,0.15334 0.50542,0.27255c0.28937,0.23636 0.48309,0.52901 0.31861,0.92848c-0.15265,0.37079 -0.44873,0.57942 -0.83546,0.52935c-1.39749,-0.17799 -2.79015,-0.38485 -4.18501,-0.58477c-0.82595,-0.11864 -1.64707,-0.30117 -2.47693,-0.35289c-1.41608,-0.08748 -2.84224,-0.03219 -4.25546,-0.1496c-1.93918,-0.16145 -3.66076,0.6397 -5.45789,1.10857c-0.28828,0.0758 -0.53033,0.354 -0.77823,0.557c-1.15556,0.94838 -2.36098,1.82131 -3.84443,2.16608c-0.71405,0.16667 -1.45858,0.27946 -2.18982,0.27757c-1.09238,-0.0022 -2.18814,-0.09654 -3.27649,-0.20466c-1.41257,-0.1404 -2.43389,-0.80885 -2.74236,-2.26725c-0.10761,-0.01508 -0.19152,-0.05449 -0.22125,-0.02933c-1.08756,0.94933 -2.35824,1.27016 -3.77378,1.16369c-0.70677,-0.05321 -1.41831,-0.04453 -2.12787,-0.0698c-2.67131,-0.09734 -4.52581,-1.50688 -5.85638,-3.71178c-0.46521,-0.7696 -0.55985,-1.65867 -0.48183,-2.5338c0.18558,-2.08355 0.74659,-4.07134 1.8392,-5.86286c0.53216,-0.87316 1.21671,-1.65292 1.88446,-2.54522zM200.03133,156.79855c-0.81304,-0.50043 -1.43259,-0.87527 -2.04585,-1.25995c-2.23774,-1.40649 -4.45027,-2.85527 -6.71742,-4.21258c-2.23671,-1.33743 -4.63976,-2.4205 -6.55658,-4.23999c-0.90774,-0.86228 -1.75651,-1.7929 -2.57172,-2.74257c-0.90237,-1.0502 -1.68574,-2.20405 -2.61179,-3.23091c-1.22664,-1.36059 -2.71655,-2.33054 -4.4736,-2.94897c-1.40937,-0.49746 -2.66,-0.45816 -3.79765,0.52875c-0.40215,0.34966 -0.80239,0.7724 -1.02501,1.24623c-0.45359,0.95944 -0.80359,1.96985 -1.15836,2.97213c-0.12629,0.35854 -0.17761,0.75423 -0.19755,1.13682c-0.06009,1.12274 0.61238,1.88626 1.74109,2.01755c0.25527,0.0293 0.51987,0.01185 0.76729,0.07094c0.40335,0.09856 0.69983,0.50619 0.62977,0.85734c-0.07494,0.38202 -0.3077,0.65048 -0.71371,0.67989c-0.35286,0.02493 -0.71882,0.05349 -1.06102,-0.01431c-1.07236,-0.21271 -1.79147,0.27094 -2.3557,1.11117c-0.12541,0.18749 -0.2577,0.37079 -0.37231,0.5656c-0.76906,1.32157 -1.37916,2.71672 -1.58259,4.23453c-0.11227,0.84814 -0.25336,1.82951 0.05366,2.56858c0.70208,1.68774 2.03654,2.84633 3.91217,3.096c1.20791,0.16056 2.44612,0.13592 3.67062,0.13589c0.81435,-0.00074 1.50062,-0.35028 1.97842,-1.03692c0.31199,-0.45027 0.63586,-0.8962 0.89861,-1.3739c0.22054,-0.40086 0.45693,-0.72625 0.96109,-0.6198c0.5171,0.10881 0.5857,0.50894 0.59864,0.96649c0.01759,0.64477 0.04912,1.29193 0.13894,1.92976c0.11824,0.83372 0.39589,1.16478 1.23378,1.25075c1.34262,0.1374 2.70315,0.27832 4.04389,0.20158c0.83472,-0.04818 1.68937,-0.40892 2.45457,-0.79022c0.71042,-0.35485 1.30718,-0.93305 1.96857,-1.39234c0.39498,-0.27383 0.78571,-0.60881 1.23073,-0.74315c2.15535,-0.6467 4.29102,-1.375 6.62036,-1.10837c1.35713,0.15482 2.74231,0.09836 4.33866,0.14398z" fill="#30419a" fill-rule="nonzero"/></g><g><path d="M214.59928,209.28204l-4.08651,4.16098l-5.08148,4.88086l-2.1814,4.28945l-0.43277,4.67755l-0.77335,3.46733l-1.44233,2.02163l-1.91199,1.40797l-1.91679,0.24535l-3.30402,-0.95676l-0.44024,-2.93877l-2.60023,0.60098l-3.24939,-0.24291l-1.50981,-3.49455l0.80339,-4.55391l1.73472,-1.75117l-2.84555,-1.2818l-1.27362,-2.58743l-0.69837,-4.40874l1.95381,-2.87137l4.26475,-1.19068l6.1345,0.17528l4.21176,1.95909l2.45731,0.44437l2.58306,-0.00022l3.42075,-0.5025l5.63487,-2.01588l0.54892,0.46587" fill="#ffffff" fill-rule="evenodd"/><path d="M192.01692,231.97532c-0.99557,0.0756 -2.04648,0.16262 -3.09885,0.23059c-1.05537,0.06788 -1.90691,-0.52068 -2.80757,-0.93057c-0.16002,-0.0716 -0.26246,-0.33763 -0.33084,-0.53567c-0.12769,-0.3628 -0.14083,-0.77834 -0.32158,-1.10464c-0.58884,-1.06425 -0.78039,-2.27322 -0.63574,-3.37954c0.21494,-1.64053 0.07563,-3.48726 1.7349,-4.73338c-0.38441,-0.23608 -0.66704,-0.42823 -0.96555,-0.58982c-0.92508,-0.50063 -1.54337,-1.23458 -1.83919,-2.26045c-0.4551,-1.57864 -0.96694,-3.13189 -1.05525,-4.8031c-0.10661,-1.97585 0.67847,-3.33298 2.29664,-4.47123c1.87132,-1.31509 3.91403,-1.55584 6.06359,-1.54445c1.25734,0.00591 2.52103,0 3.77012,0.11973c0.78622,0.07349 1.58021,0.29525 2.32031,0.58251c1.0191,0.39627 1.99918,0.89747 2.9775,1.39061c1.52769,0.76795 3.16388,0.85471 4.80867,0.74565c1.1216,-0.075 2.23357,-0.30333 3.34446,-0.49368c0.37702,-0.06526 0.75178,-0.19161 1.10335,-0.34663c2.08901,-0.91571 4.17347,-1.84755 6.25688,-2.77743c0.3506,-0.15605 0.69483,-0.19423 0.99208,0.08137c0.33529,0.3097 0.30096,0.70588 0.1254,1.07302c-0.27863,0.57828 -0.59476,1.13848 -0.89804,1.70405c-0.02962,0.05618 -0.07123,0.11201 -0.12129,0.1486c-2.14521,1.58738 -3.94494,3.58279 -6.08527,5.17431c-1.30835,0.97403 -2.34773,2.19784 -3.32693,3.4864c-0.23185,0.3065 -0.47895,0.62157 -0.78065,0.85205c-1.16087,0.88921 -1.66295,2.07535 -1.7349,3.50788c-0.08777,1.7412 -0.16065,3.48683 -0.35218,5.21807c-0.27443,2.49718 -1.26486,4.63376 -3.33239,6.19835c-0.79242,0.59861 -1.65484,0.84608 -2.60848,0.85485c-0.70945,0.00574 -1.41911,-0.05155 -2.12847,-0.04881c-0.68835,0.00234 -1.25614,-0.25798 -1.73383,-0.73082c-0.32004,-0.31827 -0.67747,-0.6236 -0.90774,-1.00234c-0.28951,-0.47646 -0.46804,-1.02078 -0.72916,-1.61548zM194.35414,230.98567c-0.62052,0.25438 -0.5879,0.79353 -0.51051,1.30595c0.08579,0.56868 1.13308,1.44895 1.7432,1.4884c0.61015,0.03844 1.22496,0.05401 1.83762,0.0395c0.7608,-0.01728 1.43399,-0.25915 2.03,-0.77634c1.60755,-1.39666 2.32668,-3.21186 2.50356,-5.27065c0.1428,-1.6716 0.20975,-3.34938 0.31262,-5.02412c0.1055,-1.73169 0.78491,-3.17188 2.14687,-4.27143c0.19866,-0.16039 0.39975,-0.33572 0.54575,-0.54363c1.16653,-1.64735 2.5595,-3.06215 4.17293,-4.27956c0.9509,-0.71813 1.82766,-1.53743 2.70416,-2.34772c0.43768,-0.40266 0.79773,-0.88958 1.13271,-1.26917c-0.01311,0.00363 -0.16008,0.03544 -0.29965,0.08848c-0.57242,0.21674 -1.12497,0.50808 -1.71516,0.64628c-1.81283,0.4234 -3.62983,0.81766 -5.4357,1.27727c-1.99936,0.5091 -4.09547,0.34317 -6.02577,-0.65437c-1.00265,-0.51685 -2.0252,-1.00225 -3.06412,-1.4401c-0.49523,-0.20923 -1.04526,-0.356 -1.57953,-0.38927c-1.35116,-0.08363 -2.70758,-0.08837 -4.06408,-0.12513c-1.87929,-0.0517 -3.6338,0.25632 -5.18403,1.46754c-0.82372,0.64374 -1.32038,1.32483 -1.34445,2.41258c-0.0345,1.52264 0.483,2.91298 0.80889,4.35688c0.28497,1.26566 1.08387,1.94575 2.22195,2.3094c0.54526,0.17364 1.12991,0.22937 1.70045,0.3237c0.22202,0.03736 0.45164,0.01891 0.67372,0.05426c0.44316,0.07069 0.7006,0.33915 0.6856,0.79391c-0.01485,0.44976 -0.2942,0.70288 -0.72922,0.76749c-0.18892,0.02962 -0.38707,-0.00306 -0.57876,0.01848c-1.08907,0.12695 -2.28595,1.29624 -2.35079,2.37483c-0.0798,1.32226 -0.19395,2.65654 -0.10753,3.97355c0.09702,1.47137 0.48446,1.91662 1.94566,1.96537c0.58068,0.01959 1.16441,0.00226 1.74103,0.05875c0.79408,0.07871 1.40066,-0.07303 1.89003,-0.81435c0.51759,-0.78354 1.1898,-0.64128 1.599,0.23276c0.17624,0.37919 0.3576,0.75452 0.59353,1.25046z" fill="#30419a" fill-rule="nonzero"/></g><g fill="none" fill-rule="nonzero" font-family="sans-serif" font-weight="normal" font-size="12" text-anchor="start"/><g><path d="M159.38372,118.88113l-0.92085,0.78702l-1.69531,-0.04844l-0.94693,-1.80178l0.44279,-1.52698l2.09415,0.05984l1.06613,1.13091l-0.03999,1.39943" fill="#ffffff" fill-rule="evenodd"/><path d="M159.87709,117.71975c-0.05884,2.05916 -2.02241,3.24156 -3.77675,2.42312c-0.25967,-0.12047 -0.5213,-0.24199 -0.76934,-0.38413c-0.62703,-0.35805 -1.03309,-0.85185 -0.98985,-1.62994c0.0353,-0.64025 -0.00051,-1.27754 0.46724,-1.8224c0.81444,-0.94913 2.25734,-1.27505 3.50968,-0.74406c0.05832,0.02468 0.11327,0.06226 0.17367,0.08399c1.03038,0.38659 1.60246,1.0572 1.38535,2.07341zM158.21231,117.37306c-0.7321,-0.42708 -1.48585,-0.58668 -1.82437,-0.36325c-0.44453,0.29242 -0.4499,0.72545 -0.33855,1.16981c0.67712,0.46053 1.34194,0.79165 2.13584,0.14106c0.00834,-0.29188 0.01802,-0.63074 0.02708,-0.94761z" fill="#30419a" fill-rule="nonzero"/></g></g><path d="M282.45554,163.47849l37.45136,1.0701l-1.00621,35.21546l-37.45136,-1.0701z" fill="#c1b4d8" fill-rule="nonzero" stroke="#c1b4d8" stroke-width="2"/><path d="M300.30281,175.17707c-0.77178,-0.02205 -1.38671,-0.41532 -1.37348,-0.87839c0.01323,-0.46307 0.64961,-0.82059 1.4214,-0.79853c0.77178,0.02205 1.38671,0.41532 1.37348,0.87839c-0.01323,0.46307 -0.64961,0.82059 -1.4214,0.79853z" fill="#ff0000" fill-rule="nonzero" stroke="none" stroke-width="0"/></g></g></svg>