<svg version="1.1" xmlns="http://www.w3.org/2000/svg" xmlns:xlink="http://www.w3.org/1999/xlink" width="125.47581" height="212.25407" viewBox="0,0,125.47581,212.25407"><g transform="translate(-177.4433,-60.45965)"><g data-paper-data="{&quot;isPaintingLayer&quot;:true}" stroke="none" stroke-linecap="butt" stroke-linejoin="miter" stroke-miterlimit="10" stroke-dasharray="" stroke-dashoffset="0" style="mix-blend-mode: normal"><g stroke-width="1"><path d="M218.75,99.921l5.4,-4.989l7.173,-4.091l7.927,-1.597l8.4,0.998l8.224,5.987l7.576,7.883l3.914,6.287l4.488,10.676l2.998,16.964l3.1,33.228l-4.8,3.093l-9.2,3.992l-11.76,1.197l-18.459,0.897l-11.781,-1.995l-11.141,-4.39l-4.059,-3.792v-19.258l0.5,-16.864l2.5,-13.722l5.4,-15.016l3.6,-5.488" fill="#c1b4d8" fill-rule="evenodd"/><path d="M207.35,172.364l4.4,2.694l5.1,2.096l3.9,1.097l5.8,1.098l4.773,0.689l4.027,0.408l4,0.399l9.7,-0.399h3.14l6.16,-0.997l5.9,-0.699l5.293,-2.195l4.807,-3.293l3.6,-1.995l0.6,8.082l-0.6,4.689l-7.253,5.289l-10.547,3.193l-9.9,0.798l-7.475,-0.698l-6.825,0.399l-11.5,-2.195l-9.1,-2.495l-6.4,-1.596l-1.6,-14.369" fill="#897ab8" fill-rule="evenodd"/><path d="M238.425,200.329h1.425h8.775l1.625,0.523l4.375,3.442l4.425,6.886l0.9,8.782l-2.025,9.404l-2.25,11.001l-5.1,13.246l-6.025,14.145l-0.875,2.02l-0.725,-0.524l-0.6,-2.544l-3.5,-7.484l-3.425,-8.606l-4.575,-13.247l-2.85,-13.62l0.525,-9.804l2.175,-7.035l3.3,-3.964l4.425,-2.621" fill="#f7ec1e" fill-rule="evenodd"/><path d="M240.75,211.928l1.125,-0.598l5.175,0.598l1.725,1.797l0.975,4.14l-1.8,10.678l-3.975,12.498h-1.025l-3.1,-9.879l-2.1,-9.505v-5.612l1.1,-3.069l1.9,-1.048" fill="#fbf5a8" fill-rule="evenodd"/><path d="M246.35,153.304l1.3,0.799l1.4,2.494l1.2,5.189v9.081l-1.3,14.668l-1.6,16.763l-3.6,16.864l-2.3,-10.477l-1.3,-10.178l-0.6,-14.269l-0.7,-16.165l0.6,-9.779l1.7,-3.493l2.8,-1.497h2.4" fill="#ef463c" fill-rule="evenodd"/><path d="M206.051,153.304l0.5,9.58l0.9,8.681l1.5,14.668l-2.8,1.397l-3.1,3.193l-1.1,7.484l0.4,9.779l1.7,8.082l-0.4,1.697l-2.9,-3.377l-7.6,-12.588l-7.3,-16.066l-2.501,-10.877l-0.6,-8.581c0,0 2.301,-10.677 2.501,-10.976c0.199,-0.299 4.099,-5.288 4.099,-5.288l6,-2.734h7.001l3.799,1.636z" fill="#ef463c" fill-rule="evenodd"/><path d="M276.25,150.311l5.592,-2.395l6.608,-0.538l6.9,2.933l4.9,5.987l2.2,11.276l-2.2,11.973l-5.1,15.267l-5.1,9.48v-5.588l-1.7,-5.787l-2.7,-4.79l-3.808,-2.894l-2.792,-1.197l-0.7,-8.482l-0.8,-10.976l-1.3,-14.269" fill="#ef463c" fill-rule="evenodd"/><path d="M249.35,96.228c-0.3,0.1 -5.8,1.696 -5.8,1.696l-7.8,0.599l-7.819,-1.497l-3.481,-1.995l4.75,-3.393l8.55,-2.096l9.4,0.898l5.8,3.293c0,0 -3.3,2.395 -3.6,2.495z" fill="#ef463c" fill-rule="evenodd"/><path d="M302.505,172.702c-0.356,2.359 -1.103,4.63 -1.473,6.97c-0.329,2.08 -1.153,4.014 -1.517,6.074c-0.126,0.716 -0.468,1.397 -0.747,2.081c-0.861,2.114 -1.712,4.232 -2.621,6.326c-0.6,1.384 -1.352,2.704 -1.93,4.096c-0.776,1.867 -1.443,3.779 -2.172,5.665c-0.15,0.388 -0.323,0.783 -0.563,1.119c-0.634,0.886 -0.921,1.882 -1.152,2.931c-0.22,1.002 -0.528,1.973 -0.575,3.018c-0.02,0.436 -0.337,0.895 -0.616,1.273c-0.502,0.685 -1.199,0.2 -1.798,0.165c-0.42,-0.025 -0.849,-0.633 -0.802,-1.059c0.044,-0.401 0.14,-0.833 0.343,-1.173c0.849,-1.417 1.595,-2.898 1.933,-4.499c0.29,-1.365 0.494,-2.756 0.51,-4.194c0.02,-1.678 -0.296,-3.222 -0.713,-4.819c-0.676,-2.585 -1.699,-5.001 -3.251,-7.148c-1.251,-1.729 -2.813,-3.167 -5.001,-3.711c-0.557,-0.139 -1.091,-0.366 -1.751,-0.591c-0.55,0.428 -1.285,0.828 -1.78,1.426c-0.712,0.859 -1.679,1.31 -2.58,1.829c-1.469,0.849 -3.018,1.571 -4.577,2.247c-0.903,0.394 -1.891,0.592 -2.839,0.88c-0.798,0.243 -1.589,0.516 -2.394,0.731c-1.711,0.455 -3.431,0.879 -5.145,1.324c-0.176,0.046 -0.39,0.1 -0.5,0.226c-0.42,0.481 -0.868,0.43 -1.392,0.2c-0.219,-0.097 -0.52,-0.125 -0.751,-0.063c-1.926,0.52 -3.897,0.581 -5.871,0.626c-0.371,0.009 -0.743,0.021 -1.113,0.045c-0.556,0.035 -1.057,0.615 -1.089,1.27c-0.027,0.546 -0.041,1.093 -0.049,1.64c-0.008,0.543 -0.002,1.088 -0.002,1.677c0.159,0.033 0.311,0.108 0.448,0.085c0.631,-0.103 1.098,0.016 1.623,0.501c0.95,0.876 2.097,1.536 3.096,2.365c1.154,0.958 2.37,1.861 3.152,3.203c0.581,0.997 1.325,1.904 1.854,2.923c0.454,0.874 0.748,1.84 1.036,2.788c0.278,0.917 0.529,1.854 0.663,2.799c0.156,1.106 0.185,2.23 0.245,3.347c0.052,0.964 0.127,1.933 0.089,2.896c-0.034,0.828 -0.202,1.652 -0.332,2.474c-0.192,1.207 -0.378,2.416 -0.611,3.615c-0.207,1.071 -0.483,2.127 -0.714,3.194c-0.204,0.94 -0.354,1.893 -0.591,2.825c-0.388,1.527 -0.924,3.021 -1.225,4.562c-0.633,3.235 -1.866,6.27 -3.018,9.327c-1.189,3.154 -2.489,6.266 -3.763,9.386c-0.971,2.377 -2.02,4.723 -2.957,7.112c-0.716,1.824 -1.308,3.696 -1.962,5.544c-0.363,1.024 -0.745,2.041 -1.111,3.063c-0.065,0.18 -0.121,0.371 -0.135,0.559c-0.034,0.448 -0.117,0.844 -0.68,0.861c-0.627,0.02 -1.193,-0.381 -1.29,-0.933c-0.122,-0.682 -0.261,-1.366 -0.313,-2.056c-0.067,-0.886 -0.359,-1.665 -0.803,-2.427c-0.234,-0.403 -0.364,-0.908 -0.398,-1.377c-0.056,-0.801 -0.32,-1.509 -0.744,-2.165c-0.879,-1.363 -1.311,-2.904 -1.833,-4.413c-0.282,-0.816 -0.681,-1.592 -0.957,-2.41c-0.72,-2.133 -1.868,-4.071 -2.751,-6.129c-0.393,-0.914 -0.763,-1.837 -1.148,-2.754c-0.432,-1.033 -0.922,-2.045 -1.289,-3.099c-0.398,-1.14 -0.589,-2.359 -1.044,-3.472c-0.477,-1.168 -0.612,-2.407 -0.981,-3.592c-0.201,-0.643 -0.306,-1.315 -0.494,-1.963c-0.195,-0.676 -0.489,-1.326 -0.648,-2.009c-0.291,-1.248 -0.504,-2.513 -0.768,-3.767c-0.085,-0.405 -0.206,-0.808 -0.357,-1.194c-0.409,-1.041 -0.395,-2.137 -0.454,-3.223c-0.054,-0.992 0.031,-1.975 -0.197,-2.976c-0.155,-0.682 0.101,-1.45 0.134,-2.182c0.019,-0.433 -0.052,-0.869 -0.055,-1.304c-0.003,-0.51 0.021,-1.021 0.037,-1.532c0.034,-1.024 0.06,-2.051 0.112,-3.075c0.015,-0.278 0.102,-0.556 0.178,-0.829c0.328,-1.171 0.648,-2.345 1.002,-3.509c0.425,-1.399 0.881,-2.79 1.327,-4.183c0.039,-0.123 0.073,-0.257 0.15,-0.354c0.772,-0.982 1.509,-1.996 2.347,-2.919c0.681,-0.75 1.45,-1.435 2.25,-2.06c0.465,-0.362 1.061,-0.566 1.611,-0.807c0.701,-0.308 1.412,-0.584 2.066,-0.85c0.31,-0.002 0.619,-0.008 0.926,-0.048c0.205,-0.026 0.323,-0.139 0.347,-0.346c0.039,-0.337 -0.005,-0.653 -0.116,-0.963c0.04,0.005 0.073,0.007 0.116,0.013c-0.071,-1.331 -0.142,-2.656 -0.216,-4.04c-1.628,0.568 -3.144,0.401 -4.668,0.118c-0.814,-0.151 -1.644,-0.223 -2.455,-0.388c-0.938,-0.192 -1.856,-0.478 -2.795,-0.661c-0.553,-0.108 -1.189,-0.494 -1.644,0.267c-0.502,-0.226 -1.06,-0.155 -1.446,-0.758c-0.226,-0.352 -0.892,-0.468 -1.384,-0.597c-0.895,-0.236 -1.815,-0.373 -2.712,-0.604c-0.639,-0.165 -1.249,-0.437 -1.882,-0.627c-0.7,-0.21 -1.406,-0.405 -2.119,-0.567c-2.386,-0.544 -4.652,-1.436 -6.909,-2.351c-0.659,-0.267 -1.228,-0.446 -1.846,0.176c-0.274,0.276 -0.817,0.351 -1.25,0.392c-1.579,0.154 -2.643,1.131 -3.543,2.268c-0.62,0.783 -0.797,1.804 -0.978,2.789c-0.191,1.038 -0.468,2.063 -0.612,3.107c-0.132,0.951 -0.133,1.92 -0.196,2.881c-0.048,0.736 -0.152,1.474 -0.14,2.21c0.013,0.767 0.128,1.534 0.215,2.299c0.043,0.382 0.206,0.768 0.174,1.139c-0.185,2.125 0.713,4.1 0.819,6.186c0.046,0.885 0.252,1.783 0.523,2.632c0.519,1.629 0.05,3.324 0.417,4.956c0.038,0.173 -0.042,0.371 -0.07,0.588c-0.364,0.072 -0.699,0.139 -1.175,0.233c-0.33,-0.399 -0.708,-0.855 -1.086,-1.313c-0.082,-0.099 -0.152,-0.211 -0.245,-0.298c-1.573,-1.484 -2.866,-3.174 -3.93,-5.06c-0.661,-1.171 -1.517,-2.23 -2.204,-3.389c-0.633,-1.07 -1.371,-2.083 -1.773,-3.29c-0.19,-0.569 -0.605,-1.06 -0.897,-1.598c-0.272,-0.5 -0.513,-1.016 -0.771,-1.523c-0.114,-0.226 -0.243,-0.445 -0.353,-0.673c-0.539,-1.12 -1.057,-2.251 -1.618,-3.36c-0.359,-0.71 -0.789,-1.383 -1.167,-2.084c-0.15,-0.278 -0.201,-0.615 -0.375,-0.874c-1.06,-1.577 -1.576,-3.404 -2.373,-5.102c-0.162,-0.346 -0.3,-0.708 -0.508,-1.024c-0.713,-1.09 -1.011,-2.323 -1.313,-3.561c-0.111,-0.455 -0.379,-0.875 -0.468,-1.332c-0.192,-0.99 -0.297,-1.997 -0.477,-2.991c-0.084,-0.462 -0.264,-0.906 -0.393,-1.36c-0.166,-0.581 -0.437,-1.158 -0.465,-1.746c-0.067,-1.426 -0.719,-2.715 -0.874,-4.11c-0.113,-1.017 -0.184,-2.038 -0.282,-3.056c-0.089,-0.912 -0.189,-1.824 -0.286,-2.736c-0.023,-0.223 -0.13,-0.474 -0.063,-0.665c0.515,-1.471 0.06,-3.053 0.542,-4.53c0.114,-0.349 0.02,-0.764 0.035,-1.148c0.02,-0.505 -0.027,-1.032 0.098,-1.511c0.216,-0.832 0.702,-1.62 0.789,-2.456c0.167,-1.59 0.57,-3.019 1.706,-4.2c0.205,-0.213 0.259,-0.575 0.376,-0.871c0.701,-1.789 2.215,-2.88 3.564,-4.109c0.206,-0.188 0.493,-0.29 0.744,-0.428c0.724,-0.401 1.443,-0.812 2.177,-1.194c0.439,-0.229 0.898,-0.423 1.357,-0.61c0.707,-0.288 1.416,-0.573 2.136,-0.827c0.231,-0.082 0.5,-0.096 0.749,-0.084c1.572,0.072 3.148,0.112 4.713,0.263c0.789,0.076 1.569,0.325 2.332,0.562c0.84,0.262 1.657,0.599 2.6,0.945c0,-1.006 -0.018,-1.953 0.007,-2.9c0.015,-0.541 0.117,-1.078 0.147,-1.619c0.106,-1.855 0.149,-3.716 0.308,-5.567c0.16,-1.855 0.558,-3.695 0.619,-5.55c0.071,-2.134 0.66,-4.168 0.954,-6.255c0.272,-1.925 0.848,-3.806 1.284,-5.708c0.201,-0.876 0.416,-1.751 0.569,-2.635c0.258,-1.479 0.595,-2.924 1.359,-4.242c0.115,-0.2 0.065,-0.488 0.149,-0.713c0.445,-1.201 0.877,-2.408 1.375,-3.587c0.496,-1.176 1.064,-2.323 1.638,-3.562c-0.409,-0.554 -0.151,-1.125 0.173,-1.761c0.859,-1.683 2.061,-3.115 3.4,-4.39c1.089,-1.037 2.077,-2.161 3.137,-3.22c0.658,-0.658 1.378,-1.253 2.071,-1.877c0.07,-0.064 0.129,-0.162 0.211,-0.188c1.581,-0.512 2.786,-1.681 4.239,-2.413c0.625,-0.316 1.271,-0.591 1.91,-0.878c0.145,-0.065 0.34,-0.06 0.448,-0.157c1.116,-1.007 2.637,-1.154 3.912,-1.827c0.358,-0.189 0.895,-0.162 1.316,-0.075c0.402,0.083 0.731,0.05 1.119,-0.044c1.185,-0.286 2.387,-0.501 3.583,-0.741c0.093,-0.019 0.194,-0.033 0.287,-0.021c1.816,0.246 3.662,0.361 5.437,0.78c2.22,0.525 4.354,1.351 6.144,2.863c0.464,0.391 0.967,0.753 1.497,1.047c1.333,0.739 2.449,1.741 3.566,2.757c0.61,0.556 1.353,0.968 1.972,1.517c0.45,0.398 0.8,0.91 1.187,1.378c0.487,0.591 0.968,1.186 1.449,1.782c0.201,0.251 0.397,0.507 0.59,0.764c0.116,0.153 0.185,0.38 0.337,0.463c1.45,0.797 1.899,2.359 2.776,3.59c0.427,0.598 0.863,1.199 1.209,1.844c0.927,1.719 2.309,3.146 3.054,4.99c0.927,2.292 1.899,4.563 2.573,6.946c0.315,1.11 0.531,2.256 0.937,3.33c0.561,1.486 0.719,3.048 1.055,4.575c0.255,1.159 0.56,2.309 0.78,3.474c0.365,1.923 0.705,3.852 1.005,5.787c0.249,1.603 0.459,3.214 0.624,4.828c0.176,1.726 0.273,3.46 0.421,5.19c0.062,0.723 0.165,1.443 0.256,2.219c0.706,-0.27 1.411,-0.398 1.94,-0.773c0.987,-0.699 2.135,-0.652 3.216,-0.876c0.872,-0.179 1.795,-0.284 2.675,-0.202c1.72,0.16 3.466,0.161 5.148,0.657c0.801,0.236 1.639,0.36 2.423,0.639c0.782,0.279 1.583,0.593 2.258,1.059c1.632,1.127 3.347,2.157 4.553,3.816c1.495,2.06 2.55,4.263 3.017,6.798c0.409,2.218 0.831,4.431 0.89,6.682c0.057,2.204 -0.071,4.404 -0.401,6.597zM225.877,94.999c0.117,0.106 0.214,0.241 0.345,0.305c0.573,0.281 1.138,0.591 1.738,0.801c1.696,0.593 3.359,1.287 5.205,1.384c0.647,0.034 1.311,0.083 1.957,0.166c2.156,0.277 4.289,0.196 6.405,-0.266c1.128,-0.246 2.23,-0.683 3.368,-0.795c1.71,-0.17 3.234,-0.813 4.758,-1.496c0.62,-0.279 1.22,-0.626 1.702,-1.155c-1.467,-1.339 -3.161,-2.058 -4.912,-2.673c-0.391,-0.138 -0.774,-0.371 -1.173,-0.402c-1.598,-0.122 -3.186,-0.288 -4.761,-0.594c-0.399,-0.077 -0.831,-0.029 -1.243,0.012c-1.877,0.188 -3.722,0.546 -5.571,0.925c-1.508,0.309 -2.809,1.061 -4.223,1.559c-1.341,0.471 -2.482,1.288 -3.595,2.229zM208.231,134.515c0.583,0.425 1.117,0.694 1.49,1.107c1.814,2.008 4.128,3.108 6.686,3.792c0.93,0.249 1.868,0.469 2.793,0.731c1.727,0.49 3.415,1.103 5.21,1.365c2.539,0.37 5.058,0.873 7.596,1.261c1.273,0.196 2.568,0.251 3.851,0.389c0.961,0.103 1.91,0.183 2.885,0.066c0.786,-0.094 1.601,-0.078 2.39,0.008c1.129,0.122 2.237,0.183 3.365,-0.056c0.551,-0.117 1.141,-0.062 1.714,-0.068c0.451,-0.005 0.906,0.054 1.353,0.016c1.114,-0.094 2.226,-0.224 3.338,-0.347c2.561,-0.285 5.08,-0.79 7.553,-1.502c1.079,-0.311 2.124,-0.739 3.185,-1.114c0.455,-0.16 0.927,-0.282 1.36,-0.486c0.929,-0.437 1.813,-0.978 2.76,-1.365c2.025,-0.828 3.825,-1.983 5.43,-3.459c0.235,-0.214 0.5,-0.48 0.788,-0.538c0.657,-0.131 0.726,-0.765 1.11,-1.119c0.553,-0.509 0.103,-0.982 -0.045,-1.481c-0.078,-0.265 0.013,-0.575 -0.042,-0.851c-0.356,-1.779 -0.726,-3.555 -1.101,-5.329c-0.124,-0.592 -0.244,-1.186 -0.415,-1.765c-0.38,-1.29 -0.793,-2.571 -1.189,-3.856c-0.265,-0.857 -0.517,-1.718 -0.787,-2.574c-0.231,-0.731 -0.45,-1.469 -0.729,-2.183c-0.437,-1.119 -0.848,-2.259 -1.406,-3.318c-0.512,-0.974 -1.209,-1.852 -1.815,-2.778c-0.118,-0.182 -0.21,-0.389 -0.274,-0.596c-0.255,-0.821 -0.651,-1.651 -1.236,-2.184c-0.602,-0.548 -0.909,-1.207 -1.332,-1.829c-0.197,-0.289 -0.456,-0.535 -0.684,-0.803c-0.831,-0.973 -1.634,-1.97 -2.495,-2.914c-1.857,-2.038 -3.843,-3.936 -6.143,-5.433c-0.413,0.209 -0.788,0.381 -1.147,0.582c-1.63,0.913 -3.338,1.659 -5.134,2.158c-0.615,0.171 -1.203,0.423 -1.815,0.563c-1.118,0.257 -2.275,0.341 -3.395,0.593c-2.712,0.611 -5.442,0.328 -8.154,0.146c-1.551,-0.104 -3.115,-0.464 -4.601,-0.936c-1.423,-0.452 -2.755,-1.193 -4.123,-1.815c-0.345,-0.157 -0.678,-0.343 -1.076,-0.545c-0.812,0.738 -1.562,1.385 -2.27,2.075c-0.459,0.447 -0.86,0.955 -1.284,1.439c-0.656,0.748 -1.256,1.554 -1.977,2.232c-0.755,0.71 -1.056,1.726 -1.808,2.426c-0.14,0.13 -0.245,0.455 -0.181,0.617c0.189,0.476 -0.073,0.816 -0.261,1.168c-0.59,1.102 -1.214,2.186 -1.814,3.283c-1.289,2.349 -2.09,4.893 -2.874,7.435c-0.423,1.373 -0.648,2.807 -0.977,4.211c-0.11,0.467 -0.308,0.917 -0.394,1.388c-0.512,2.804 -1.032,5.606 -1.486,8.42c-0.209,1.289 -0.275,2.602 -0.393,3.773zM208.193,185.755c-0.018,-0.22 -0.016,-0.444 -0.056,-0.661c-0.182,-1.002 -0.523,-2.002 -0.528,-3.004c-0.006,-1.327 -0.117,-2.618 -0.37,-3.916c-0.164,-0.845 -0.107,-1.734 -0.301,-2.569c-0.286,-1.227 -0.521,-2.454 -0.524,-3.713c-0.002,-0.518 -0.131,-0.956 -0.507,-1.304c-0.394,-0.365 -0.361,-0.828 -0.036,-1.097c0.438,-0.362 0.377,-0.771 0.379,-1.212c0.006,-1.689 -0.419,-3.353 -0.29,-5.049c0.031,-0.41 0.05,-0.825 0.021,-1.234c-0.111,-1.592 -0.308,-3.181 -0.347,-4.774c-0.024,-0.98 -0.403,-1.972 0.003,-2.955c0.034,-0.083 0.027,-0.194 0.006,-0.284c-0.29,-1.257 -0.045,-2.51 -0.004,-3.921c-0.936,-0.383 -1.881,-0.747 -2.806,-1.156c-0.956,-0.423 -1.934,-0.673 -2.985,-0.588c-0.158,0.012 -0.319,0.008 -0.478,-0.004c-0.884,-0.067 -1.767,-0.191 -2.65,-0.191c-0.599,0 -1.25,0.051 -1.787,0.287c-1.556,0.683 -3.087,1.43 -4.587,2.229c-1.359,0.724 -2.425,1.822 -3.241,3.107c-0.72,1.134 -1.44,2.307 -1.899,3.558c-0.617,1.682 -1.116,3.432 -1.424,5.194c-0.397,2.284 -0.36,4.616 -0.368,6.939c-0.01,2.907 0.515,5.726 1.181,8.532c0.467,1.97 0.897,3.949 1.417,5.905c0.436,1.641 0.869,3.296 1.498,4.868c0.712,1.781 1.684,3.456 2.463,5.213c1.03,2.322 2.605,4.376 3.353,6.833c0.028,0.092 0.086,0.173 0.131,0.26c1.102,2.069 2.201,4.14 3.308,6.206c0.454,0.849 0.873,1.725 1.402,2.527c0.989,1.5 2.023,2.972 3.087,4.42c0.452,0.614 1.028,1.138 1.661,1.826c0.03,-0.374 0.069,-0.533 0.051,-0.686c-0.222,-1.878 -0.365,-3.772 -0.705,-5.629c-0.377,-2.053 -0.539,-4.127 -0.851,-6.182c-0.196,-1.294 0.311,-2.536 -0.04,-3.85c-0.237,-0.888 -0.032,-1.919 0.093,-2.871c0.195,-1.496 0.525,-2.973 0.731,-4.468c0.21,-1.528 0.719,-2.853 1.773,-4.048c0.617,-0.701 1.267,-1.253 2.074,-1.643c0.685,-0.332 1.408,-0.59 2.152,-0.895zM213.775,187.152c-0.079,-0.643 -0.194,-1.164 -0.197,-1.684c-0.004,-1.016 0.101,-2.034 0.075,-3.049c-0.042,-1.685 -0.151,-3.368 -0.237,-5.053c-0.026,-0.511 -0.366,-0.79 -0.788,-0.995c-1.364,-0.664 -2.75,-1.287 -3.895,-2.32c-0.088,-0.08 -0.275,-0.053 -0.575,-0.101c0.286,1.721 0.559,3.319 0.812,4.922c0.079,0.504 0.132,1.016 0.148,1.527c0.03,0.927 -0.01,1.859 0.043,2.786c0.037,0.635 0.158,1.269 0.287,1.895c0.042,0.203 0.188,0.478 0.356,0.547c1.263,0.513 2.544,0.983 3.971,1.525zM226.576,189.509c-0.085,-1.372 -0.227,-2.739 -0.314,-4.11c-0.088,-1.375 -0.121,-2.754 -0.207,-4.13c-0.064,-1.031 -0.163,-1.105 -1.15,-1.317c-2.325,-0.497 -4.649,-1.001 -6.971,-1.509c-0.925,-0.203 -1.846,-0.423 -2.865,-0.658c0,0.407 -0.018,0.69 0.003,0.972c0.102,1.407 0.23,2.813 0.317,4.221c0.039,0.641 0.033,1.287 -0.006,1.928c-0.031,0.505 -0.135,1.006 -0.224,1.506c-0.07,0.394 -0.168,0.784 -0.262,1.217c0.366,0.105 0.605,0.188 0.851,0.242c0.847,0.183 1.732,0.255 2.535,0.553c2.596,0.963 5.239,1.727 8.146,2.171c0.059,-0.409 0.168,-0.752 0.147,-1.086zM239.247,192.202c-0.079,-3.523 -0.296,-6.98 -0.292,-10.495c-1.906,-0.502 -3.776,-0.416 -5.608,-0.624c-1.856,-0.21 -3.712,-0.414 -5.676,-0.633c0.319,3.628 0.051,7.15 0.777,10.663c3.601,0.848 7.107,1.626 10.799,1.089zM248.21,200.778c-0.096,0.738 -0.176,1.371 -0.261,2.003c-0.127,0.954 -0.188,1.923 -0.402,2.858c-0.317,1.381 -0.594,2.761 -0.673,4.18c-0.026,0.479 -0.023,0.835 0.514,1.096c0.47,0.229 0.841,0.66 1.249,1.01c0.512,0.438 0.514,1.142 0.859,1.666c1.099,1.669 1.155,3.565 1.147,5.454c-0.003,0.881 -0.255,1.757 -0.316,2.641c-0.079,1.154 -0.07,2.313 -0.617,3.383c-0.113,0.223 -0.123,0.497 -0.185,0.746c-0.28,1.121 -0.423,2.3 -0.875,3.347c-0.612,1.415 -1.171,2.841 -1.609,4.315c-0.293,0.985 -0.395,2.058 -0.848,2.959c-0.983,1.953 -1.299,4.073 -1.818,6.146c-0.085,0.338 -0.118,0.701 -0.105,1.05c0.019,0.542 -0.097,1.01 -0.494,1.378c-0.643,-0.066 -1.13,-0.318 -1.302,-0.958c-0.074,-0.275 -0.097,-0.568 -0.119,-0.854c-0.044,-0.595 0.077,-1.253 -0.139,-1.773c-0.438,-1.048 -0.862,-2.083 -1.162,-3.187c-0.644,-2.368 -1.488,-4.681 -2.045,-7.071c-0.283,-1.215 -0.624,-2.398 -1.099,-3.549c-0.158,-0.384 -0.272,-0.796 -0.338,-1.206c-0.246,-1.51 -0.349,-3.044 -0.807,-4.518c-0.065,-0.208 -0.042,-0.447 -0.043,-0.672c-0.005,-1.018 0.022,-2.037 -0.011,-3.054c-0.039,-1.196 -0.241,-2.4 0.518,-3.483c0.139,-0.199 0.136,-0.493 0.223,-0.735c0.412,-1.131 0.921,-2.178 2.228,-2.535c0.114,-0.031 0.202,-0.152 0.303,-0.231c0.267,-0.21 0.534,-0.421 0.898,-0.707c-0.318,-3.066 -0.669,-6.216 -1.162,-9.366c-1.067,-0.129 -1.974,0.382 -2.871,0.712c-1.361,0.501 -2.471,1.478 -3.492,2.503c-0.517,0.519 -1.009,1.096 -1.377,1.726c-1.479,2.536 -2.105,5.361 -2.629,8.205c-0.186,1.006 -0.254,2.037 -0.337,3.059c-0.106,1.313 -0.2,2.627 -0.25,3.943c-0.036,0.959 -0.045,1.927 0.031,2.884c0.093,1.177 0.225,2.357 0.45,3.515c0.356,1.826 0.798,3.634 1.214,5.447c0.387,1.69 0.745,3.388 1.198,5.061c0.393,1.457 0.89,2.886 1.361,4.321c0.37,1.128 0.732,2.261 1.17,3.363c0.411,1.036 0.916,2.033 1.377,3.049c0.555,1.229 1.092,2.467 1.667,3.686c0.34,0.724 0.815,1.392 1.094,2.135c0.585,1.562 1.007,3.175 1.726,4.697c0.625,1.324 0.859,2.816 1.688,4.071c0.223,0.339 0.294,0.777 0.44,1.167c0.371,0.991 0.745,1.98 1.118,2.97c0.092,0.022 0.186,0.045 0.278,0.067c0.175,-0.282 0.396,-0.545 0.513,-0.849c0.182,-0.475 0.255,-0.991 0.443,-1.463c0.34,-0.862 0.738,-1.701 1.096,-2.556c0.455,-1.092 0.888,-2.193 1.341,-3.285c0.344,-0.83 0.717,-1.647 1.055,-2.478c0.279,-0.683 0.447,-1.422 0.804,-2.059c0.69,-1.235 1.29,-2.494 1.631,-3.87c0.054,-0.215 0.167,-0.415 0.252,-0.624c0.429,-1.057 0.858,-2.115 1.286,-3.173c0.601,-1.482 1.258,-2.945 1.783,-4.453c0.481,-1.382 1.028,-2.734 1.319,-4.197c0.286,-1.435 0.725,-2.845 0.951,-4.304c0.065,-0.422 0.324,-0.816 0.506,-1.218c0.181,-0.404 0.45,-0.785 0.547,-1.207c0.141,-0.613 0.126,-1.261 0.243,-1.881c0.31,-1.637 0.684,-3.262 0.979,-4.901c0.326,-1.815 0.653,-3.634 0.862,-5.464c0.106,-0.931 -0.054,-1.892 -0.078,-2.84c-0.008,-0.312 0.086,-0.634 0.042,-0.939c-0.24,-1.645 -0.597,-3.258 -1.116,-4.849c-1.058,-3.237 -3.107,-5.708 -5.713,-7.793c-0.025,-0.02 -0.057,-0.032 -0.082,-0.051c-0.651,-0.512 -1.299,-1.025 -1.951,-1.534c-0.119,-0.094 -0.282,-0.261 -0.379,-0.233c-0.709,0.202 -1.161,-0.265 -1.699,-0.693zM239.088,213.96c-0.527,0.873 -0.713,1.838 -0.797,2.825c-0.07,0.829 -0.129,1.666 -0.096,2.496c0.04,1.021 0.133,2.045 0.287,3.056c0.227,1.488 0.472,2.979 0.815,4.442c0.292,1.24 0.769,2.435 1.103,3.666c0.309,1.14 0.46,2.32 0.984,3.4c0.165,0.342 0.255,0.72 0.369,1.084c0.475,1.512 0.945,3.025 1.417,4.538c0.288,-0.396 0.363,-0.833 0.55,-1.216c0.359,-0.735 0.505,-1.543 1.055,-2.231c0.377,-0.472 0.359,-1.265 0.5,-1.918c0.136,-0.623 0.178,-1.278 0.391,-1.872c0.324,-0.899 0.761,-1.758 1.148,-2.634c0.064,-0.146 0.149,-0.287 0.187,-0.439c0.35,-1.387 0.694,-2.776 1.034,-4.166c0.29,-1.183 0.602,-2.361 0.846,-3.553c0.108,-0.529 0.001,-1.102 0.117,-1.628c0.343,-1.551 0.049,-2.996 -0.485,-4.461c-0.392,-1.079 -1.186,-1.821 -1.854,-2.733c-0.064,0.133 -0.123,0.212 -0.142,0.3c-0.414,1.978 -0.831,3.955 -1.232,5.937c-0.157,0.783 -0.249,1.581 -0.418,2.362c-0.179,0.83 -0.732,1.005 -1.409,0.476c-0.315,-0.245 -0.483,-0.537 -0.536,-0.971c-0.1,-0.822 -0.311,-1.632 -0.496,-2.442c-0.225,-0.981 -0.481,-1.955 -0.702,-2.937c-0.169,-0.745 -0.306,-1.497 -0.457,-2.248c-1.138,-0.204 -1.696,0.066 -2.179,0.867zM249.006,175.433c0.201,-1.608 0.528,-3.201 0.792,-4.801c0.047,-0.282 0.066,-0.572 0.071,-0.859c0.02,-1.003 0.031,-2.007 0.039,-3.011c0.005,-0.606 0.022,-1.213 -0.009,-1.818c-0.083,-1.681 0.198,-3.409 -0.669,-4.992c-0.114,-0.21 -0.089,-0.501 -0.114,-0.756c-0.117,-1.234 -0.544,-2.326 -1.273,-3.354c-0.759,-1.071 -1.77,-1.731 -2.958,-2.238c-0.245,0.06 -0.529,0.111 -0.803,0.198c-1.399,0.443 -2.617,1.149 -3.184,2.579c-0.342,0.861 -0.685,1.768 -0.766,2.678c-0.186,2.1 -0.599,4.172 -0.596,6.304c0.005,3.242 0.123,6.475 0.344,9.706c0.087,1.275 0.354,2.54 0.423,3.816c0.143,2.621 0.2,5.247 0.308,7.87c0.109,2.633 0.228,5.266 0.358,7.898c0.101,2.055 0.189,4.111 0.351,6.161c0.11,1.404 0.335,2.799 0.513,4.197c0.255,2 0.456,4.009 0.79,5.995c0.305,1.811 0.756,3.598 1.178,5.558c0.468,-0.541 0.461,-1.052 0.505,-1.546c0.034,-0.38 0.04,-0.768 0.124,-1.138c0.126,-0.561 0.364,-1.101 0.457,-1.665c0.146,-0.883 0.201,-1.78 0.312,-2.668c0.122,-0.983 0.14,-2.002 0.421,-2.939c0.502,-1.669 0.466,-3.406 0.821,-5.091c0.241,-1.144 0.29,-2.33 0.412,-3.498c0.04,-0.378 0.011,-0.765 0.067,-1.14c0.163,-1.096 0.404,-2.182 0.521,-3.282c0.141,-1.323 0.132,-2.651 0.379,-3.979c0.291,-1.559 0.293,-3.171 0.416,-4.76c0.067,-0.883 0.1,-1.769 0.193,-2.649c0.119,-1.146 0.319,-2.283 0.415,-3.429c0.094,-1.112 0.023,-2.242 0.162,-3.347zM257.212,191.923c-0.001,-1.17 -0.017,-2.342 -0.086,-3.509c-0.066,-1.115 -0.204,-2.225 -0.307,-3.336c-0.091,-0.985 -0.251,-1.971 -0.239,-2.954c0.009,-0.638 -0.088,-1.197 -0.404,-1.802c-1.954,0.256 -3.913,0.514 -5.917,0.777c-0.106,0.598 -0.238,1.129 -0.289,1.668c-0.098,1.01 -0.128,2.026 -0.224,3.036c-0.19,2.009 -0.4,4.016 -0.613,6.023c-0.051,0.463 0.043,0.825 0.512,0.953c0.601,-0.026 1.195,0.008 1.789,0.054c0.414,0.033 0.832,0.146 1.239,0.11c1.021,-0.089 2.037,-0.24 3.054,-0.371c0.382,-0.049 0.777,-0.071 1.14,-0.185c0.154,-0.048 0.345,-0.302 0.345,-0.464zM260.108,178.13c1.132,-0.083 2.256,-0.23 3.368,-0.412c0.774,-0.127 1.515,-0.489 2.256,-0.784c1.4,-0.557 2.799,-1.121 4.181,-1.722c0.616,-0.268 1.183,-0.646 1.784,-0.951c1.356,-0.688 2.627,-1.501 3.681,-2.604c0.42,-0.44 0.884,-0.706 1.587,-0.676c-0.055,-0.715 -0.09,-1.351 -0.159,-1.985c-0.079,-0.734 -0.221,-1.463 -0.276,-2.199c-0.08,-1.09 -0.111,-2.184 -0.154,-3.276c-0.036,-0.901 -0.015,-1.807 -0.099,-2.703c-0.176,-1.877 -0.408,-3.749 -0.608,-5.624c-0.064,-0.604 -0.064,-1.215 -0.153,-1.814c-0.213,-1.432 -0.445,-2.855 -0.279,-4.314c0.049,-0.43 -0.046,-0.88 -0.099,-1.317c-0.111,-0.926 -0.259,-1.847 -0.354,-2.774c-0.152,-1.495 -0.271,-2.995 -0.41,-4.492c-0.047,-0.505 -0.19,-1.013 -0.154,-1.51c0.082,-1.173 -0.268,-2.232 -0.636,-3.342c-0.2,0.166 -0.312,0.285 -0.447,0.365c-0.51,0.308 -1.073,0.545 -1.534,0.912c-1.328,1.056 -2.726,1.973 -4.365,2.474c-0.122,0.037 -0.254,0.073 -0.356,0.146c-1.211,0.858 -2.553,1.499 -3.94,1.961c-1.838,0.612 -3.645,1.342 -5.573,1.685c-1.537,0.274 -3.058,0.643 -4.591,0.946c-0.464,0.092 -0.945,0.1 -1.417,0.155c-0.541,0.064 -1.081,0.139 -1.622,0.206c-0.542,0.068 -1.084,0.173 -1.628,0.191c-1.113,0.037 -2.229,-0.024 -3.339,0.046c-3.312,0.208 -6.624,0.24 -9.93,0.016c-1.655,-0.112 -3.297,-0.444 -4.939,-0.71c-2.185,-0.355 -4.367,-0.729 -6.545,-1.12c-1.231,-0.222 -2.476,-0.366 -3.634,-0.928c-0.682,-0.332 -1.438,-0.576 -2.187,-0.698c-2.162,-0.351 -4.207,-1.022 -6.144,-2.026c-0.368,-0.191 -0.675,-0.514 -1.055,-0.656c-0.945,-0.355 -1.537,-1.126 -2.363,-1.84c-0.091,0.592 -0.206,1.093 -0.238,1.6c-0.148,2.34 -0.28,4.682 -0.4,7.025c-0.026,0.513 0.052,1.031 0.032,1.544c-0.098,2.594 -0.246,5.187 -0.306,7.782c-0.023,1.046 0.154,2.094 0.204,3.143c0.118,2.429 0.187,4.859 0.328,7.286c0.09,1.573 0.224,3.148 0.439,4.708c0.074,0.535 0.35,1.121 0.713,1.523c0.618,0.685 1.357,1.267 2.08,1.848c1.101,0.884 2.288,1.625 3.62,2.137c1.673,0.642 3.327,1.334 4.991,1.998c0.146,0.059 0.313,0.067 0.47,0.096c1.262,0.234 2.523,0.469 3.785,0.702c0.189,0.034 0.378,0.066 0.568,0.095c1.202,0.184 2.406,0.36 3.606,0.552c0.666,0.106 1.323,0.262 1.991,0.351c1.008,0.135 2.021,0.231 3.032,0.344c0.859,0.095 1.714,0.236 2.575,0.274c0.858,0.038 1.725,-0.157 2.564,0.231c0.179,0.084 0.475,-0.08 0.763,-0.14c-0.027,-0.469 -0.027,-0.887 -0.083,-1.298c-0.115,-0.854 -0.335,-1.699 -0.378,-2.554c-0.144,-2.863 -0.252,-5.728 -0.328,-8.593c-0.042,-1.568 -0.022,-3.139 0.03,-4.707c0.025,-0.763 0.178,-1.524 0.291,-2.284c0.074,-0.501 0.205,-0.996 0.267,-1.499c0.135,-1.094 0.62,-2.076 0.942,-3.11c0.719,-2.304 2.319,-3.542 4.662,-3.913c0.308,-0.049 0.61,-0.137 0.748,-0.168c0.387,0.221 0.633,0.416 0.914,0.51c2.491,0.841 3.862,2.645 4.46,5.12c0.12,0.497 0.076,1.095 0.344,1.482c0.305,0.439 0.358,0.863 0.387,1.334c0.054,0.864 0.108,1.729 0.148,2.595c0.134,2.956 0.173,5.9 -0.283,8.849c-0.332,2.15 -0.411,4.338 -0.593,6.51c-0.029,0.347 -0.004,0.698 -0.004,1.041c0.194,0.057 0.321,0.133 0.438,0.121c1.815,-0.199 3.631,-0.395 5.443,-0.622c1.306,-0.163 2.6,-0.445 3.911,-0.539zM267.729,177.863c-1.618,0.554 -3.052,1.307 -4.664,1.511c-1.617,0.206 -3.222,0.497 -4.863,0.757c-0.045,3.997 0.888,7.834 0.917,11.887c3.126,-0.691 6.184,-1.414 9.176,-2.377c0.226,-3.931 -0.217,-7.786 -0.566,-11.778zM277.625,180.661c-0.064,-0.131 -0.012,-0.318 -0.019,-0.479c-0.061,-1.217 -0.129,-2.434 -0.18,-3.651c-0.024,-0.572 -0.012,-1.145 -0.028,-1.717c-0.02,-0.721 -0.052,-1.443 -0.088,-2.397c-1.164,0.832 -2.103,1.483 -3.019,2.162c-1.163,0.862 -2.387,1.623 -3.71,2.206c-1.079,0.475 -1.159,0.445 -1.086,1.606c0.197,3.074 0.45,6.143 0.688,9.214c0.026,0.335 0.104,0.665 0.158,0.999c1.563,-0.49 2.787,-1.435 4.13,-2.161c1.432,-0.774 2.256,-2.125 3.345,-3.162c0.172,-0.897 0.226,-1.776 -0.191,-2.62zM300.894,162.45c-0.152,-1.11 -0.382,-2.211 -0.635,-3.303c-0.15,-0.649 -0.348,-1.304 -0.642,-1.899c-0.615,-1.248 -1.302,-2.461 -1.973,-3.682c-0.089,-0.162 -0.231,-0.316 -0.385,-0.416c-1.1,-0.707 -1.959,-1.708 -3.164,-2.319c-0.949,-0.484 -1.869,-1.036 -2.901,-1.266c-1.435,-0.319 -2.826,-0.851 -4.335,-0.863c-1.189,-0.01 -2.378,-0.238 -3.562,-0.203c-1.048,0.03 -2.13,0.164 -3.122,0.482c-1.116,0.358 -2.147,0.975 -3.33,1.533c0.088,0.952 0.179,1.81 0.245,2.669c0.101,1.312 0.159,2.626 0.288,3.935c0.125,1.273 0.363,2.536 0.467,3.81c0.146,1.792 0.163,3.596 0.332,5.384c0.17,1.791 0.543,3.563 0.677,5.354c0.176,2.369 0.212,4.748 0.294,7.123c0.011,0.348 -0.131,0.707 -0.084,1.044c0.164,1.174 0.363,2.344 0.583,3.508c0.079,0.415 0.407,0.584 0.82,0.702c1.265,0.362 2.5,0.858 3.554,1.635c2.063,1.519 3.578,3.481 4.434,5.924c0.519,1.483 1.08,2.95 1.618,4.425c0.473,1.298 0.893,2.607 0.947,4.005c0.009,0.231 0.066,0.461 0.101,0.692c0.066,0.011 0.132,0.022 0.197,0.033c0.486,-1.131 0.979,-2.259 1.456,-3.393c0.543,-1.292 1.045,-2.599 1.61,-3.879c0.863,-1.956 1.832,-3.86 2.574,-5.877c0.474,-1.287 1.018,-2.537 1.312,-3.888c0.196,-0.904 0.622,-1.771 0.732,-2.681c0.226,-1.894 0.924,-3.674 1.174,-5.573c0.225,-1.703 0.63,-3.39 0.861,-5.107c0.357,-2.653 0.217,-5.282 -0.143,-7.909z" fill="#30419a" fill-rule="nonzero"/><path d="M213.733,142.84c-0.062,0.732 -0.708,0.901 -1.208,1.009c-0.289,0.062 -0.724,-0.309 -1.016,-0.572c-0.291,-0.263 -0.291,-0.949 -0.095,-1.237c0.19,-0.281 0.712,-0.283 1.203,-0.139c0.534,0.156 0.867,0.481 1.116,0.939z" fill="#30419a" fill-rule="evenodd"/><path d="M231.211,146.514c0.226,1.057 0.117,1.501 -0.401,1.733c-0.517,0.23 -1.174,0.155 -1.417,-0.163c-0.278,-0.364 -0.251,-1.093 0.057,-1.514c0.34,-0.464 0.784,-0.484 1.761,-0.056z" fill="#30419a" fill-rule="evenodd"/><path d="M253.537,147.738c0.238,-0.536 0.454,-1.019 0.69,-1.551c0.695,0.28 1.471,0.23 1.636,1.094c0.081,0.426 -0.301,1.027 -0.793,1.217c-0.702,0.27 -1.035,-0.29 -1.533,-0.76z" fill="#30419a" fill-rule="evenodd"/><path d="M271.852,141.857c-0.084,0.258 -0.162,0.465 -0.218,0.678c-0.111,0.426 -0.238,0.772 -0.816,0.714c-0.748,-0.076 -1.001,-0.208 -1.182,-0.745c-0.123,-0.364 -0.181,-0.764 0.197,-0.934c0.378,-0.169 0.835,-0.237 1.251,-0.217c0.236,0.012 0.459,0.29 0.768,0.504z" fill="#30419a" fill-rule="evenodd"/><g><path d="M242.567,107.005l3.983,1.197l5,2.797l3.6,4.088l1.2,5.239l-1.2,7.633l-4.9,4.191l-8.4,1.497l-5,-1.896l-5.527,-4.69l-2.123,-5.089v-5.787l1.061,-4.391l3.989,-3.791l8.317,-0.998" fill="#ef463c" fill-rule="evenodd"/><path d="M242.961,112.394l2.989,0.698l3.1,2.794l1.9,4.145v3.738l-2,2.395l-5.989,1.397l-5.311,-1.696l-2.7,-4.191v-5.089l2.7,-3.493l5.311,-0.698" fill="#ffffff" fill-rule="evenodd"/><path d="M240.99,105.908c1.604,0.25 3.164,0.345 4.634,0.76c1.838,0.518 3.623,1.21 5.18,2.428c1.087,0.851 2.163,1.705 3.169,2.648c0.616,0.578 1.013,1.286 1.419,2.031c0.793,1.459 1.273,2.993 1.637,4.593c0.183,0.798 0.208,1.568 0.139,2.38c-0.084,0.99 0.005,1.992 -0.006,2.989c-0.018,1.738 -0.468,3.403 -1.288,4.899c-0.822,1.497 -2.053,2.696 -3.582,3.535c-0.88,0.483 -1.736,1.024 -2.654,1.416c-0.99,0.421 -1.991,0.823 -3.116,0.873c-1.084,0.047 -2.16,0.277 -3.239,0.425c-0.159,0.022 -0.33,0.08 -0.476,0.045c-1.723,-0.424 -3.584,-0.557 -5.048,-1.618c-1.05,-0.761 -2.301,-1.148 -3.281,-1.972c-1.224,-1.029 -2.449,-2.064 -3.303,-3.458c-0.482,-0.788 -0.995,-1.567 -1.576,-2.283c-0.898,-1.106 -1.2,-2.45 -1.652,-3.739c-0.02,-0.057 -0.02,-0.13 -0.005,-0.189c0.311,-1.238 -0.096,-2.492 0.069,-3.723c0.149,-1.104 0.402,-2.197 0.665,-3.282c0.249,-1.025 0.616,-2.023 0.841,-3.052c0.121,-0.551 0.346,-0.983 0.705,-1.404c0.372,-0.436 0.602,-0.998 0.994,-1.411c0.82,-0.86 1.768,-1.672 2.95,-1.834c0.862,-0.118 1.668,-0.41 2.518,-0.521c1.457,-0.191 2.915,-0.363 4.306,-0.536zM255.51,121.864c0.182,-1.948 -0.247,-3.826 -0.818,-5.624c-0.393,-1.243 -0.969,-2.513 -2.096,-3.364c-0.204,-0.154 -0.474,-0.234 -0.648,-0.412c-0.987,-1.007 -2.062,-1.886 -3.368,-2.46c-0.872,-0.383 -1.68,-0.886 -2.668,-1.02c-1.07,-0.144 -2.117,-0.453 -3.18,-0.662c-0.469,-0.093 -0.957,-0.189 -1.429,-0.162c-1.847,0.108 -3.663,0.577 -5.531,0.465c-0.112,-0.007 -0.232,0.085 -0.346,0.136c-0.32,0.141 -0.633,0.299 -0.958,0.426c-1.659,0.646 -2.961,1.629 -3.373,3.48c-0.062,0.279 -0.178,0.545 -0.248,0.823c-0.255,1.017 -0.479,2.042 -0.757,3.053c-0.271,0.991 -0.296,2.008 -0.43,3.014c-0.144,1.084 -0.103,2.121 0.323,3.097c0.511,1.172 1.074,2.333 1.747,3.417c0.481,0.774 1.119,1.482 1.801,2.093c0.803,0.72 1.715,1.322 2.602,1.944c1.392,0.975 2.797,1.933 4.56,2.13c0.216,0.024 0.414,0.179 0.631,0.236c0.3,0.08 0.61,0.178 0.915,0.172c0.602,-0.013 1.211,-0.177 1.804,-0.126c1.689,0.145 3.224,-0.387 4.701,-1.06c1.094,-0.498 2.138,-1.13 3.137,-1.801c0.928,-0.624 2.046,-1.116 2.313,-2.396c0.005,-0.027 0.043,-0.046 0.064,-0.071c0.553,-0.622 0.803,-1.359 0.881,-2.18c0.1,-1.052 0.245,-2.099 0.371,-3.148z" fill="#30419a" fill-rule="nonzero"/><path d="M244.03,129.065c-1.54,-0.096 -2.756,-0.184 -3.869,-0.778c-0.141,-0.075 -0.294,-0.154 -0.45,-0.174c-1.136,-0.148 -2.124,-0.77 -2.813,-1.524c-1.003,-1.098 -2.292,-1.976 -2.71,-3.627c-0.441,-1.741 -0.605,-3.404 -0.303,-5.178c0.245,-1.442 0.674,-2.779 1.372,-4.051c0.367,-0.669 0.834,-1.19 1.595,-1.422c0.303,-0.092 0.569,-0.298 0.859,-0.436c0.23,-0.111 0.474,-0.29 0.706,-0.281c0.766,0.032 1.446,-0.262 2.153,-0.464c0.212,-0.061 0.436,-0.106 0.656,-0.118c1.892,-0.106 3.608,0.448 5.196,1.434c0.653,0.405 1.271,0.864 1.907,1.298c1.263,0.861 2.056,2.098 2.717,3.43c0.693,1.397 1.141,2.872 1.145,4.44c0.004,1.656 -0.482,3.155 -1.615,4.407c-0.276,0.305 -0.535,0.625 -0.819,0.922c-0.776,0.812 -1.682,1.374 -2.838,1.48c-0.349,0.033 -0.689,0.16 -1.035,0.237c-0.713,0.157 -1.427,0.311 -1.854,0.405zM250.487,121.678c-0.076,-0.822 -0.016,-1.596 -0.244,-2.273c-0.261,-0.772 -0.737,-1.484 -1.195,-2.171c-0.386,-0.581 -0.815,-1.168 -1.345,-1.609c-0.633,-0.525 -1.37,-0.94 -2.101,-1.33c-1.254,-0.668 -2.563,-1.181 -4.035,-0.984c-0.603,0.081 -1.238,0.077 -1.797,0.278c-0.365,0.13 -0.689,0.26 -1.088,0.276c-0.667,0.025 -1.211,0.345 -1.666,0.846c-0.933,1.025 -1.376,2.256 -1.613,3.591c-0.24,1.351 -0.108,2.667 0.37,3.941c0.676,1.798 2.054,2.948 3.743,3.706c0.92,0.413 1.936,0.615 2.912,0.899c0.114,0.033 0.256,-0.042 0.379,-0.026c0.846,0.115 1.626,-0.163 2.438,-0.328c1.396,-0.285 2.665,-0.681 3.754,-1.709c0.962,-0.909 1.362,-1.961 1.488,-3.107z" fill="#30419a" fill-rule="nonzero"/></g></g><g stroke-width="1"><g><path d="M219.076,217.865l-0.337,10.34l0.563,2.957l0.975,1.609l1.087,1.46l0.863,2.132l0.637,2.732l-0.563,3.517l-0.675,1.011l-1.913,0.748l0.788,0.486l1.087,1.647l0.337,2.844l-0.75,3.555l-2.625,2.881h-4.013l-3.037,-0.936l-3,-2.132l-3.45,0.785l-3.375,-0.935l-2.513,-2.507c0,0 0,-3.816 0,-3.929c0,-0.112 2.663,-4.453 2.663,-4.453l6.037,-5.314l3.713,-5.5l1.875,-3.618l1.7,-3.891l3.1,-5.089z" fill="#ffffff" fill-rule="evenodd"/><path d="M208.056,253.661c-1.04,0.93 -2.3,0.809 -3.487,0.513c-1.308,-0.325 -2.594,-0.799 -3.825,-1.352c-2.086,-0.935 -3.234,-3.542 -2.689,-5.764c0.576,-2.353 1.735,-4.366 3.475,-6.04c0.86,-0.826 1.767,-1.605 2.676,-2.379c2.239,-1.906 4.353,-3.884 5.882,-6.472c1.351,-2.287 2.516,-4.637 3.507,-7.092c0.553,-1.373 1.129,-2.752 1.86,-4.034c0.823,-1.443 1.477,-2.966 2.292,-4.409c0.219,-0.386 0.351,-0.823 0.529,-1.234c0.076,-0.176 0.143,-0.364 0.258,-0.513c0.228,-0.296 0.515,-0.498 0.919,-0.345c0.375,0.142 0.592,0.432 0.553,0.82c-0.138,1.402 -0.305,2.8 -0.465,4.2c-0.095,0.829 -0.254,1.655 -0.282,2.486c-0.047,1.418 0.049,2.842 -0.028,4.258c-0.106,1.943 0.744,3.641 1.264,5.424c0.084,0.286 0.369,0.52 0.579,0.762c0.981,1.128 1.888,2.308 2.275,3.781c0.187,0.709 0.321,1.45 0.34,2.181c0.029,1.092 -0.034,2.19 -0.111,3.281c-0.1,1.416 -0.739,2.456 -2.188,2.806c-0.012,0.108 -0.049,0.193 -0.023,0.222c0.98,1.06 1.337,2.321 1.271,3.739c-0.033,0.708 -0.004,1.419 -0.009,2.129c-0.021,2.673 -1.377,4.567 -3.543,5.96c-0.756,0.487 -1.642,0.607 -2.519,0.554c-2.088,-0.126 -4.091,-0.63 -5.913,-1.671c-0.888,-0.507 -1.687,-1.169 -2.598,-1.811zM217.691,221.254c-0.477,0.827 -0.834,1.457 -1.201,2.081c-1.342,2.277 -2.727,4.53 -4.019,6.835c-1.273,2.274 -2.287,4.707 -4.051,6.675c-0.836,0.932 -1.742,1.807 -2.668,2.649c-1.024,0.932 -2.155,1.748 -3.155,2.703c-1.325,1.265 -2.252,2.782 -2.82,4.556c-0.457,1.423 -0.382,2.672 0.637,3.781c0.361,0.392 0.795,0.78 1.275,0.989c0.972,0.426 1.992,0.747 3.004,1.073c0.362,0.116 0.759,0.156 1.142,0.165c1.124,0.028 1.868,-0.666 1.967,-1.798c0.022,-0.256 -0.003,-0.52 0.049,-0.769c0.087,-0.406 0.486,-0.714 0.839,-0.654c0.384,0.064 0.659,0.289 0.7,0.694c0.035,0.352 0.074,0.717 0.016,1.061c-0.182,1.078 0.322,1.783 1.178,2.323c0.191,0.12 0.378,0.247 0.576,0.356c1.343,0.731 2.755,1.301 4.278,1.461c0.851,0.088 1.836,0.201 2.566,-0.127c1.667,-0.75 2.787,-2.117 2.983,-3.999c0.126,-1.212 0.066,-2.449 0.031,-3.673c-0.024,-0.814 -0.393,-1.49 -1.093,-1.948c-0.459,-0.299 -0.914,-0.61 -1.399,-0.859c-0.407,-0.209 -0.739,-0.436 -0.647,-0.943c0.094,-0.52 0.492,-0.6 0.949,-0.626c0.644,-0.036 1.29,-0.086 1.925,-0.194c0.83,-0.142 1.153,-0.429 1.215,-1.269c0.099,-1.346 0.201,-2.71 0.086,-4.048c-0.072,-0.833 -0.457,-1.677 -0.86,-2.431c-0.375,-0.7 -0.97,-1.28 -1.448,-1.928c-0.285,-0.387 -0.631,-0.768 -0.778,-1.209c-0.708,-2.136 -1.497,-4.25 -1.297,-6.586c0.116,-1.361 0.02,-2.744 0.02,-4.341z" fill="#30419a" fill-rule="nonzero"/></g><g><path d="M269.737,205.193l4.276,3.966l5.024,4.94l4.35,2.058l4.688,0.299l3.488,0.674l2.062,1.384l1.462,1.871l0.3,1.909l-0.862,3.33l-2.925,0.524l0.675,2.582l-0.15,3.255l-3.45,1.609l-4.575,-0.673l-1.8,-1.684l-1.2,2.881l-2.55,1.347l-4.387,0.824l-2.926,-1.871l-1.312,-4.229v-6.137l1.838,-4.266l0.374,-2.469l-0.074,-2.582l-0.6,-3.405l-2.176,-5.575l0.45,-0.562" fill="#ffffff" fill-rule="evenodd"/><path d="M293.066,227.118c0.104,0.993 0.221,2.041 0.319,3.091c0.098,1.053 -0.466,1.921 -0.85,2.833c-0.067,0.162 -0.33,0.272 -0.526,0.346c-0.359,0.138 -0.774,0.163 -1.095,0.353c-1.047,0.619 -2.25,0.845 -3.36,0.732c-1.646,-0.168 -3.488,0.024 -4.781,-1.599c-0.225,0.391 -0.409,0.679 -0.562,0.982c-0.474,0.939 -1.19,1.578 -2.207,1.903c-1.565,0.5 -3.103,1.056 -4.771,1.192c-1.972,0.163 -3.351,-0.583 -4.535,-2.168c-1.368,-1.833 -1.667,-3.868 -1.717,-6.017c-0.03,-1.257 -0.072,-2.52 0.012,-3.772c0.051,-0.788 0.25,-1.588 0.516,-2.336c0.367,-1.03 0.84,-2.024 1.305,-3.016c0.724,-1.549 0.764,-3.187 0.608,-4.828c-0.107,-1.119 -0.367,-2.224 -0.589,-3.329c-0.076,-0.375 -0.213,-0.746 -0.378,-1.093c-0.975,-2.062 -1.966,-4.119 -2.955,-6.175c-0.166,-0.346 -0.214,-0.689 0.053,-0.994c0.3,-0.344 0.697,-0.321 1.069,-0.156c0.586,0.262 1.155,0.562 1.729,0.849c0.057,0.028 0.114,0.068 0.152,0.117c1.648,2.099 3.694,3.841 5.346,5.935c1.011,1.28 2.264,2.284 3.58,3.226c0.313,0.223 0.635,0.461 0.874,0.756c0.922,1.135 2.122,1.603 3.556,1.634c1.743,0.038 3.49,0.061 5.226,0.203c2.504,0.203 4.668,1.132 6.291,3.154c0.621,0.775 0.893,1.63 0.929,2.583c0.026,0.709 -0.011,1.42 0.012,2.129c0.022,0.688 -0.222,1.263 -0.681,1.754c-0.309,0.329 -0.604,0.695 -0.976,0.936c-0.468,0.303 -1.007,0.497 -1.594,0.775zM292.01,224.81c0.272,0.613 0.81,0.565 1.32,0.473c0.566,-0.102 1.416,-1.174 1.438,-1.785c0.021,-0.611 0.019,-1.226 -0.013,-1.838c-0.039,-0.76 -0.3,-1.426 -0.834,-2.007c-1.442,-1.567 -3.277,-2.234 -5.34,-2.352c-1.675,-0.095 -3.354,-0.114 -5.031,-0.169c-1.734,-0.056 -3.193,-0.694 -4.331,-2.024c-0.166,-0.194 -0.347,-0.39 -0.559,-0.53c-1.68,-1.119 -3.134,-2.471 -4.397,-4.049c-0.745,-0.93 -1.589,-1.783 -2.424,-2.636c-0.415,-0.426 -0.912,-0.772 -1.301,-1.096c0.004,0.013 0.04,0.159 0.097,0.297c0.233,0.566 0.54,1.11 0.695,1.696c0.475,1.8 0.921,3.605 1.432,5.397c0.566,1.984 0.46,4.084 -0.482,6.042c-0.488,1.017 -0.944,2.053 -1.352,3.104c-0.195,0.501 -0.326,1.055 -0.344,1.59c-0.045,1.353 -0.011,2.709 -0.009,4.066c0.002,1.88 0.36,3.625 1.615,5.14c0.667,0.805 1.362,1.282 2.45,1.275c1.523,-0.009 2.898,-0.566 4.332,-0.933c1.257,-0.321 1.914,-1.139 2.245,-2.287c0.158,-0.55 0.197,-1.136 0.275,-1.709c0.031,-0.223 0.006,-0.452 0.035,-0.675c0.058,-0.445 0.319,-0.71 0.774,-0.708c0.45,0.002 0.711,0.274 0.788,0.707c0.035,0.188 0.008,0.387 0.035,0.578c0.158,1.085 1.361,2.248 2.441,2.282c1.324,0.042 2.661,0.118 3.975,-0.006c1.468,-0.139 1.902,-0.539 1.909,-2.001c0.003,-0.581 -0.031,-1.164 0.009,-1.742c0.056,-0.796 -0.113,-1.398 -0.868,-1.866c-0.798,-0.495 -0.675,-1.171 0.187,-1.605c0.374,-0.187 0.744,-0.379 1.233,-0.629z" fill="#30419a" fill-rule="nonzero"/></g><g fill="none" fill-rule="nonzero" font-family="sans-serif" font-weight="normal" font-size="12" text-anchor="start"/><g><path d="M180.95,262.968l0.813,0.898v1.696l-1.774,0.998l-1.539,-0.399v-2.095l1.1,-1.098h1.4" fill="#ffffff" fill-rule="evenodd"/><path d="M179.775,262.508c2.06,0 3.298,1.929 2.53,3.706c-0.113,0.263 -0.227,0.528 -0.362,0.78c-0.34,0.637 -0.822,1.057 -1.601,1.036c-0.641,-0.017 -1.277,0.037 -1.835,-0.415c-0.972,-0.787 -1.339,-2.22 -0.844,-3.487c0.023,-0.059 0.059,-0.115 0.079,-0.176c0.357,-1.041 1.011,-1.632 2.033,-1.444zM179.476,264.182c-0.406,0.744 -0.544,1.502 -0.311,1.834c0.305,0.436 0.738,0.429 1.179,0.305c0.441,-0.69 0.753,-1.364 0.08,-2.139c-0.292,0 -0.631,0 -0.948,0z" fill="#30419a" fill-rule="nonzero"/></g></g><path d="M234.53474,95.65975v-35.2001h9.26318v35.2001z" fill="#ff0000" fill-rule="nonzero" stroke-width="0"/><path d="M293.38321,149.73666v0h-1.08979v0z" fill="#ff0000" fill-rule="nonzero" stroke-width="0"/><path d="M239.49103,75.66848l-0.1027,-2.17715l1.63286,-0.07702l0.1027,2.17715z" fill="#ff0000" fill-rule="nonzero" stroke-width="0"/><path d="M183.73236,170.15316v-69.74633h10.89786v69.74633z" fill="#ff0000" fill-rule="nonzero" stroke-width="0"/><path d="M289.55822,170.63857v-69.74633h10.89786v69.74633z" fill="#ff0000" fill-rule="nonzero" stroke-width="0"/></g></g></svg>